<?xml version="1.0" encoding="utf-8"?>
<!-- Generator: Adobe Illustrator 23.0.3, SVG Export Plug-In . SVG Version: 6.00 Build 0)  -->
<svg version="1.1" id="Layer_1" xmlns="http://www.w3.org/2000/svg" xmlns:xlink="http://www.w3.org/1999/xlink" x="0px" y="0px"
	 width="76.9px" height="52.6px" viewBox="0 0 76.9 52.6" style="enable-background:new 0 0 76.9 52.6;" xml:space="preserve">
<style type="text/css">
	.st0{fill:#FFFFFF;}
</style>
<title>MidBossLogoMobile</title>
<path class="st0" d="M59,22.5c-0.5,2-2.6,4.1-4.9,5.6c0.1-0.2,0.1-0.4,0.2-0.6c0.9-2.9,1.8-5.9,2.7-8.8c1-0.1,1.5-0.4,1.5-0.5
	c0.4-1.2,0.8-2.5,1.3-3.8c0.2-0.5,0.3-1,0.5-1.5l0.5-1.5C59.9,11,59,10.6,58,10.2c-0.2,0.5-0.3,1-0.5,1.6c-0.3-0.2-0.8-0.3-1.3-0.5
	c0.1-0.5,0.3-1.1,0.4-1.6c-1-0.3-2-0.6-3.1-0.9c-0.1,0.6-0.3,1.1-0.4,1.7c-0.5-0.1-1-0.3-1.6-0.4c0.1-0.6,0.2-1.1,0.3-1.7
	c-1.1-0.2-2.2-0.5-3.3-0.6l-0.3,1.7c0.1,0.5,0,1.1-0.1,1.7c-0.2,1.4-0.4,2.8-0.6,4.2c0,0,0.4,0.6,1.3,1.3c-0.2,0.9-0.3,1.8-0.5,2.7
	c-2.5-0.4-5.1-0.6-7.6-0.7c0,0.9-0.1,1.7-0.1,2.6c-1.4,0-2.8,0-4.2,0l-0.1-2.7c-2.6,0.1-5.1,0.3-7.6,0.7c-0.2-0.9-0.3-1.8-0.5-2.7
	c1-0.7,1.3-1.2,1.3-1.3c-0.2-1.4-0.4-2.8-0.6-4.2c-0.1-0.6-0.2-1.1-0.3-1.7s-0.2-1.1-0.3-1.7c-1.1,0.2-2.2,0.4-3.3,0.6l0.3,1.7
	c-0.5,0.1-1.1,0.2-1.6,0.4c-0.1-0.6-0.3-1.1-0.4-1.7c-1.1,0.3-2.1,0.6-3.1,0.9c0.2,0.5,0.3,1.1,0.4,1.6c-0.3,0.3-0.8,0.4-1.2,0.6
	c-0.2-0.5-0.3-1-0.5-1.6c-1,0.4-1.9,0.8-2.8,1.2l0.5,1.5c0.2,0.5,0.3,1,0.5,1.5c0.4,1.3,0.8,2.5,1.3,3.8c0,0,0.5,0.3,1.5,0.5
	c0.8,2.6,1.6,5.2,2.4,7.8c0.2,0.5,0.3,1.1,0.5,1.6c-2.3-1.5-4.4-3.7-4.9-5.6c-2.1,1.4-6,0.7-6.4,6.6c0.9-1.6,2.4-1.3,4,1.8
	c0.4-1.8,2.3-1.6,4.1,0.5c-0.2-0.9-0.3-2.6,3.4-2.1c1.6,5.2,3.1,10.3,4.6,15.5h6.7c-0.3-2.3,0.1-4.2,0.9-4.3s1.5,1.9,1.6,4.3h2.9
	c0.1-2.4,0.8-4.3,1.6-4.3s1.2,1.9,0.9,4.3h7c1.5-5.2,3-10.3,4.6-15.5c3.7-0.5,3.7,1.2,3.4,2.1c1.8-2.1,3.7-2.3,4.1-0.5
	c1.6-3.1,3.1-3.4,4-1.8C64.9,23.2,61.1,23.9,59,22.5z M29.1,30.5c-2.3-2.4-3.4-6.4-1.9-9.5c0,0,0.9,2.2,3.9,5.3
	c3,3.2,4.5,3.6,4.5,3.6C34,32.7,31.4,32.8,29.1,30.5z M47.9,30.5c-2.3,2.4-4.9,2.2-6.6-0.5c0,0,1.6-0.4,4.5-3.6
	c3-3.1,3.9-5.3,3.9-5.3C51.3,24,50.2,28.1,47.9,30.5z"/>
</svg>
