<?xml version="1.0" encoding="utf-8"?>
<!-- Generator: Adobe Illustrator 23.0.3, SVG Export Plug-In . SVG Version: 6.00 Build 0)  -->
<svg version="1.1" id="Layer_1" xmlns="http://www.w3.org/2000/svg" xmlns:xlink="http://www.w3.org/1999/xlink" x="0px" y="0px"
	 width="380.1px" height="52.8px" viewBox="0 0 380.1 52.8" style="enable-background:new 0 0 380.1 52.8;" xml:space="preserve">
<style type="text/css">
	.st0{fill:#EF5B83;}
	.st1{fill:#FFFFFF;}
	.st2{clip-path:url(#SVGID_2_);}
	.st3{fill-rule:evenodd;clip-rule:evenodd;stroke:#000000;stroke-width:0.5;stroke-miterlimit:10;}
</style>
<title>MidBossLogo</title>
<polygon class="st0" points="49.1,51.4 0.3,51.4 12.3,9.9 61.1,9.9 "/>
<g>
	<path class="st1" d="M71.1,20.5L70.2,17h-1.7l-0.9,3.5h-2.8l2.8-9.9h7.4l1.3,1.7l-0.9,3.1l-2,1.5l1.1,3.6H71.1z M69.1,14.7h3.2
		l0.4-0.4l0.4-1.2l-0.3-0.3h-3.2L69.1,14.7z"/>
	<path class="st1" d="M81.1,12.9l-0.4,1.5h5.2l-0.7,2.3H80l-0.4,1.5h6L85,20.4h-8.9l2.8-9.9h8.9l-0.7,2.3h-6V12.9z"/>
	<path class="st1" d="M94.1,18.8h-3.9l-1.1,1.7h-2.8l6.9-9.9H96l1.2,9.9h-3L94.1,18.8z M93.9,16.6l-0.3-3.2l-2,3.2H93.9z"/>
	<path class="st1" d="M110.5,12.6l-1.7,5.9l-2.7,2h-7.3l2.8-9.9h7.3L110.5,12.6z M107.4,13.5l-0.5-0.7h-3.1l-1.5,5.2h3.1l0.8-0.7
		L107.4,13.5z"/>
	<path class="st1" d="M126.1,12.6l-1.7,6l-2.7,2h-5.4l-1.6-2l1.7-6l2.7-2h5.4L126.1,12.6z M121.8,17.6l1.2-4l-0.5-0.7h-2.7l-0.8,0.7
		l-1.2,4l0.5,0.7h2.7L121.8,17.6z"/>
	<path class="st1" d="M138.2,10.6l-2.8,9.9h-2.3l-2.7-5.9l-1.7,5.9H126l2.8-9.9h2.7l2.6,5.5l1.6-5.5
		C135.7,10.6,138.2,10.6,138.2,10.6z"/>
	<path class="st1" d="M146.7,18.2l-0.7,2.3h-8.2l2.8-9.9h2.8l-2.2,7.7H146.7z"/>
	<path class="st1" d="M158,10.6l-5.6,5.8l-1.2,4.2h-2.8l1.2-4.2l-2.3-5.8h3.2l1.2,3.4l3.1-3.4C154.7,10.6,158,10.6,158,10.6z"/>
	<path class="st1" d="M172.1,20.5h-2.8l1.6-5.6l-3.6,4.2h-1.1l-1.1-4.2l-1.6,5.6h-2.7l2.8-9.9h2.8l1.3,5l4.3-5h2.8L172.1,20.5z"/>
	<path class="st1" d="M179.6,12.9l-0.4,1.5h5.2l-0.7,2.3h-5.2l-0.4,1.5h6l-0.7,2.3h-8.9l2.8-9.9h8.9l-0.7,2.3h-6V12.9z"/>
	<path class="st1" d="M196.8,20.5H194l1.6-5.6L192,19h-1.1l-1.1-4.2l-1.6,5.6h-2.7l2.8-9.9h2.8l1.3,5l4.3-5h2.8L196.8,20.5z"/>
	<path class="st1" d="M210.9,12.6l-1.7,6l-2.7,2h-5.4l-1.6-2l1.7-6l2.7-2h5.4L210.9,12.6z M206.6,17.6l1.2-4l-0.5-0.7h-2.7l-0.8,0.7
		l-1.2,4l0.5,0.7h2.7L206.6,17.6z"/>
	<path class="st1" d="M217.4,20.5l-0.9-3.5h-1.7l-0.9,3.5h-2.8l2.8-9.9h7.4l1.3,1.7l-0.9,3.1l-2,1.5l1.1,3.6H217.4z M215.4,14.7h3.2
		l0.4-0.4l0.4-1.2l-0.4-0.3h-3.2L215.4,14.7z"/>
	<path class="st1" d="M228.9,12.9l-1.5,5.2h1.9l-0.7,2.3h-6.6l0.7-2.3h1.9l1.5-5.2h-1.9l0.7-2.3h6.6l-0.7,2.3
		C230.8,12.9,228.9,12.9,228.9,12.9z"/>
	<path class="st1" d="M235.7,12.9l-0.4,1.5h5.2l-0.7,2.3h-5.2l-0.4,1.5h6l-0.7,2.3h-8.9l2.8-9.9h8.9l-0.7,2.3h-6V12.9z"/>
	<path class="st1" d="M251.9,16.1l-0.8,2.8l-2.3,1.7h-6.2l-1.2-1.5l2.4-1.7l0.8,1.1h3.4l0.5-0.4l0.3-0.8l-0.3-0.5l-4.6-0.3l-1.2-1.5
		l0.8-2.8l2.3-1.7h5.9l1.2,1.5l-2.4,1.7l-0.8-0.9h-3l-0.5,0.4l-0.3,0.9l0.1,0.3l4.6,0.3L251.9,16.1z"/>
</g>
<g>
	<path class="st1" d="M78.9,35c0.4,0.9,0.9,1.9,1.3,2.8l3.8-13c0.1-0.3,0.3-0.5,0.5-0.8c0.3-0.3,0.5-0.3,0.9-0.3h7.4
		c0.3,0,0.5,0.1,0.8,0.3c0.1,0.3,0.3,0.4,0.1,0.8l-7.4,25.5c-0.1,0.3-0.3,0.5-0.5,0.8c-0.3,0.3-0.5,0.3-0.9,0.3h-8.5
		c-0.1,0-0.3,0-0.4-0.1c-0.1-0.1-0.3-0.1-0.4-0.3l-6.9-13.4l-3.8,12.8c-0.1,0.3-0.3,0.5-0.5,0.8c-0.3,0.3-0.5,0.3-0.9,0.3h-7.4
		c-0.3,0-0.5-0.1-0.7-0.3c-0.1-0.3-0.3-0.4-0.1-0.8l7.4-25.5c0.1-0.3,0.3-0.5,0.5-0.8c0.3-0.3,0.5-0.3,0.9-0.3h8.5
		c0.1,0,0.3,0,0.5,0.1c0.1,0.1,0.3,0.1,0.3,0.3c0.7,1.3,1.3,2.8,2,4.2c0.7,1.3,1.3,2.7,2,4C78,33.3,78.4,34.1,78.9,35z"/>
	<path class="st1" d="M91.4,51.4c-0.3,0-0.5-0.1-0.7-0.3c-0.1-0.3-0.3-0.4-0.1-0.8L98,24.8c0.1-0.3,0.3-0.5,0.5-0.8
		c0.3-0.3,0.5-0.3,0.9-0.3h22c0.3,0,0.5,0.1,0.7,0.3c0.1,0.3,0.3,0.4,0.1,0.8l-1.5,5.1c-0.1,0.3-0.3,0.5-0.5,0.8s-0.5,0.3-0.9,0.3
		h-12.8l-0.8,2.8h10.9c0.3,0,0.5,0.1,0.7,0.3c0.1,0.3,0.3,0.4,0.1,0.8L116,40c-0.1,0.3-0.3,0.5-0.5,0.8c-0.3,0.3-0.5,0.3-0.9,0.3
		h-10.9l-0.8,3h13.7c0.3,0,0.5,0.1,0.7,0.3c0.1,0.3,0.1,0.4,0.1,0.8l-1.5,5.2c-0.1,0.3-0.3,0.5-0.5,0.8c-0.3,0.3-0.5,0.3-0.9,0.3
		H91.4z"/>
	<path class="st1" d="M147.5,24.8c0.1-0.3,0.3-0.5,0.5-0.8c0.3-0.3,0.5-0.3,0.9-0.3h7.8c0.3,0,0.5,0.1,0.7,0.3
		c0.1,0.3,0.3,0.4,0.1,0.8l-5.1,17.9c-0.9,3.4-3.1,5.8-6.3,7.3c-3,1.2-6.9,1.9-11.7,1.9c-5.1,0-8.6-0.7-10.8-1.9
		c-2.3-1.3-3-3.9-1.9-7.5l5.1-17.6c0.1-0.3,0.3-0.5,0.5-0.8c0.3-0.3,0.5-0.3,0.9-0.3h7.8c0.3,0,0.5,0.1,0.8,0.3
		c0.1,0.3,0.3,0.4,0.1,0.8L133,39.3c-0.4,1.6-0.4,2.8,0.3,3.5c0.7,0.7,1.9,1.1,3.8,1.1c1.9,0,3.2-0.4,4.3-1.1
		c1.1-0.7,1.7-1.9,2.3-3.5L147.5,24.8z"/>
	<path class="st1" d="M167,41.6l-2.6,8.7c-0.1,0.3-0.3,0.5-0.5,0.8c-0.3,0.3-0.5,0.3-0.9,0.3h-8.5c-0.3,0-0.5-0.1-0.7-0.3
		c-0.1-0.3-0.3-0.4-0.1-0.8l7.4-25.5c0.1-0.3,0.3-0.5,0.5-0.8c0.3-0.3,0.5-0.3,0.9-0.3h19c3.2,0,5.6,0.7,7.3,2
		c1.7,1.5,2.2,3.4,1.5,5.8c-0.8,2.7-2.2,4.6-4.3,5.8c-0.5,0.3-1.1,0.5-1.7,0.8s-1.3,0.5-2,0.7c0.7,0.4,1.2,0.8,1.7,1.3
		c0.4,0.4,0.8,0.9,1.1,1.3l2.8,8.2c0.1,0.4,0,0.8-0.3,1.1c-0.3,0.4-0.7,0.5-1.2,0.5h-9.7c-0.3,0-0.4,0-0.5-0.1
		c-0.1-0.1-0.3-0.3-0.3-0.4l-2.4-8.3v0.1c-0.1-0.1-0.1-0.3-0.3-0.4c-0.1-0.1-0.1-0.3-0.3-0.3c-0.1-0.1-0.9-0.3-2.3-0.3
		C170.6,41.6,167,41.6,167,41.6z M170.1,30.1l-1.5,5.2h4.6c1.9,0,3.4-0.1,4.4-0.5s1.7-1.1,2-2.2c0.3-0.8,0-1.5-0.5-1.9
		c-0.7-0.4-1.6-0.5-3-0.5h-6V30.1z"/>
	<path class="st1" d="M220.5,48.3c-3.6,2.3-8.5,3.5-14.2,3.5c-5.9,0-9.9-1.2-12.2-3.5c-2.3-2.3-2.8-5.9-1.3-10.8
		c1.3-4.8,3.9-8.5,7.7-10.8c3.6-2.4,8.5-3.5,14.2-3.5c5.9,0,9.9,1.2,12.2,3.5c2.3,2.4,2.8,5.9,1.3,10.8
		C226.7,42.4,224.1,45.9,220.5,48.3z M217,33c-0.9-1.1-2.6-1.5-5-1.5c-2.4,0-4.3,0.5-5.9,1.5c-1.5,1.1-2.6,2.6-3.2,4.6
		c-0.5,2-0.4,3.5,0.5,4.6c0.9,1.1,2.6,1.5,5,1.5s4.3-0.5,5.9-1.5c1.5-1.1,2.6-2.6,3.2-4.6C218.2,35.6,217.9,34,217,33z"/>
	<path class="st1" d="M253.3,23.7c4.6,0,7.8,1.3,9.9,3.9c2,2.6,2.6,5.9,1.3,9.9s-3.5,7.4-7.1,9.9c-3.5,2.6-7.5,3.9-12,3.9h-16.7
		c-0.3,0-0.5-0.1-0.8-0.3c-0.1-0.3-0.3-0.4-0.1-0.8l7.4-25.5c0.1-0.3,0.3-0.5,0.5-0.8s0.5-0.3,0.9-0.3
		C236.7,23.7,253.3,23.7,253.3,23.7z M254.1,33.6c-0.7-0.9-1.7-1.3-3.5-1.3h-6.7l-3.1,10.9h6.3c1.9,0,3.4-0.4,4.6-1.3s2-2.3,2.6-4
		C254.7,35.8,254.6,34.5,254.1,33.6z"/>
	<path class="st1" d="M265.1,51.4c-0.3,0-0.5-0.1-0.7-0.3c-0.1-0.3-0.1-0.4-0.1-0.8l7.4-25.5c0.1-0.3,0.3-0.5,0.5-0.8
		c0.3-0.3,0.5-0.3,0.8-0.3h7c0.3,0,0.5,0.1,0.7,0.3c0.1,0.3,0.1,0.4,0.1,0.8l-7.4,25.5c-0.1,0.3-0.3,0.5-0.5,0.8
		c-0.3,0.3-0.5,0.3-0.8,0.3H265.1z"/>
	<path class="st1" d="M318.2,23.7c0.5,0,0.8,0.1,0.9,0.5c0.1,0.3,0,0.7-0.3,1.1l-21.2,25.9c-0.1,0.1-0.4,0.3-0.5,0.4
		c-0.3,0.1-0.4,0.1-0.7,0.1h-5c-0.1,0-0.4,0-0.5-0.1c-0.1-0.1-0.3-0.3-0.3-0.4l-6.2-25.9c-0.1-0.4,0-0.8,0.4-1.1
		c0.3-0.3,0.7-0.4,1.2-0.4h8.6c0.3,0,0.4,0,0.5,0.1c0.1,0.1,0.3,0.3,0.3,0.4l3,13.7l10.5-13.7c0.1-0.1,0.3-0.3,0.5-0.4
		s0.5-0.1,0.7-0.1h8.1V23.7z"/>
	<path class="st1" d="M315.1,51.4c-0.3,0-0.5-0.1-0.7-0.3c-0.1-0.3-0.3-0.4-0.1-0.8l7.4-25.5c0.1-0.3,0.3-0.5,0.5-0.8
		c0.3-0.3,0.5-0.3,0.9-0.3h22c0.3,0,0.5,0.1,0.7,0.3c0.1,0.3,0.3,0.4,0.1,0.8l-1.5,5.1c-0.1,0.3-0.3,0.5-0.5,0.8
		c-0.3,0.3-0.5,0.3-0.9,0.3h-12.8l-0.8,2.8h10.9c0.3,0,0.5,0.1,0.7,0.3c0.1,0.3,0.3,0.4,0.1,0.8l-1.5,5.1c-0.1,0.3-0.3,0.5-0.5,0.8
		s-0.5,0.3-0.9,0.3h-10.9l-0.8,3h13.7c0.3,0,0.5,0.1,0.7,0.3c0.1,0.3,0.1,0.4,0.1,0.8l-1.5,5.1c-0.1,0.3-0.3,0.5-0.5,0.8
		c-0.3,0.3-0.5,0.3-0.9,0.3h-23V51.4z"/>
	<path class="st1" d="M356.5,41.6l-2.6,8.7c-0.1,0.3-0.3,0.5-0.5,0.8c-0.3,0.3-0.5,0.3-0.9,0.3H344c-0.3,0-0.5-0.1-0.7-0.3
		c-0.1-0.3-0.3-0.4-0.1-0.8l7.4-25.5c0.1-0.3,0.3-0.5,0.5-0.8c0.3-0.3,0.5-0.3,0.9-0.3h19c3.2,0,5.6,0.7,7.3,2
		c1.7,1.5,2.2,3.4,1.5,5.8c-0.8,2.7-2.2,4.6-4.3,5.8c-0.5,0.3-1.1,0.5-1.7,0.8c-0.7,0.3-1.3,0.5-2,0.7c0.7,0.4,1.2,0.8,1.7,1.3
		c0.4,0.4,0.8,0.9,1.1,1.3l2.8,8.2c0.1,0.4,0,0.8-0.3,1.1c-0.3,0.4-0.7,0.5-1.2,0.5h-9.7c-0.3,0-0.4,0-0.5-0.1
		c-0.1-0.1-0.3-0.3-0.3-0.4l-2.4-8.3v0.1c-0.1-0.1-0.1-0.3-0.3-0.4c-0.1-0.1-0.1-0.3-0.3-0.3c-0.1-0.1-0.9-0.3-2.3-0.3
		C360.1,41.6,356.5,41.6,356.5,41.6z M359.6,30.1l-1.5,5.2h4.6c1.9,0,3.4-0.1,4.4-0.5s1.7-1.1,2-2.2c0.3-0.8,0-1.5-0.5-1.9
		c-0.7-0.4-1.6-0.5-3-0.5h-6V30.1z"/>
</g>
<g>
	<defs>
		<polygon id="SVGID_1_" points="49.1,51.4 0.3,51.4 12.2,9.9 61.1,9.9 		"/>
	</defs>
	<clipPath id="SVGID_2_">
		<use xlink:href="#SVGID_1_"  style="overflow:visible;"/>
	</clipPath>
	<g class="st2">
		<g>
			<g>
				<g>
					<path class="st3" d="M32,54.4c0-0.3,0.1-0.6,0.1-0.8c0-0.4,0-0.8,0.1-1.2c0-0.2,0-0.5,0-0.7c0-0.1,0-0.3,0-0.4
						c0-0.3,0.1-0.6,0.1-0.8c0,0,0-0.1,0-0.1c0-0.1,0-0.2,0-0.3c0-0.2,0-0.4,0.1-0.5c0-0.1,0-0.1,0-0.2c0-0.2,0.1-0.4,0.1-0.6
						c0-0.2,0-0.4,0-0.7c0-0.3,0.1-0.6,0.2-0.8c0-0.1,0.1-0.2,0.1-0.3c0.1-0.4,0.1-0.7,0.2-1.1c0.1-0.5,0.2-0.9,0.3-1.4
						c0-0.4,0.2-0.7,0.3-1.1c0-0.2,0.1-0.4,0.2-0.7c0.1-0.3,0.1-0.6,0.2-0.9c0.1-0.3,0.2-0.6,0.3-1c0-0.1,0.1-0.2,0-0.3
						c-0.1-0.1-0.1-0.2,0.1-0.3c0.1,0,0.2,0,0.4-0.1c0,0.2,0.3,0.2,0.3,0.3c0.1,0.2,0.3,0.3,0.4,0.5c0.1,0.1,0.2,0.2,0.3,0.3
						c0.1,0.1,0.2,0.2,0.3,0.3c0.1,0.1,0.2,0.3,0.3,0.4c0.2,0.2,0.3,0.4,0.5,0.6c0,0,0.1,0,0.1,0c0,0,0.1,0,0.1-0.1
						c0-0.1,0.1-0.2,0.1-0.3c0-0.1,0.1-0.1,0.2-0.2c0.1-0.2,0.2-0.4,0.4-0.6c0,0,0,0,0.1-0.1c0.1-0.3,0.3-0.5,0.5-0.7
						c0.1-0.1,0.2-0.1,0.2-0.2c0.2-0.2,0.3-0.4,0.5-0.6c0.2-0.2,0.4-0.5,0.6-0.7c0.1-0.1,0.2-0.3,0.3-0.4c0.1-0.1,0.3-0.3,0.4-0.4
						c0.1-0.1,0.2-0.2,0.3-0.3c0.1-0.1,0.1-0.1,0-0.3c0,0-0.1,0-0.1-0.1c-0.1-0.1-0.2-0.2-0.3-0.3c-0.1-0.1-0.3-0.3-0.4-0.5
						c-0.2-0.2-0.4-0.4-0.6-0.6c-0.2-0.3-0.4-0.6-0.6-0.9c-0.1-0.2-0.2-0.3-0.4-0.5c-0.1-0.2-0.3-0.3-0.3-0.6c0,0,0,0,0,0
						c-0.1,0-0.1-0.2-0.2-0.3c0,0,0-0.1,0-0.1c-0.1-0.1-0.2-0.3-0.2-0.5c0,0,0,0,0-0.1c-0.1-0.3-0.2-0.6-0.3-0.9
						c-0.1-0.2-0.1-0.4-0.2-0.5c-0.1-0.1-0.1-0.2-0.1-0.4c0-0.1,0-0.1,0-0.2c0,0-0.1-0.1-0.1-0.1c-0.1-0.2,0-0.3,0-0.4
						c0-0.4,0.3-0.7,0.4-1.1c0.1-0.2,0.2-0.4,0.3-0.6c0.2-0.3,0.2-0.7,0.5-1c0.1-0.1,0.1-0.2,0.2-0.3c0.1-0.3,0.2-0.5,0.3-0.8
						c0.1-0.3,0.3-0.6,0.5-0.9c0.1-0.2,0.2-0.5,0.3-0.7c0-0.1,0.1-0.2,0.1-0.3c0.1-0.1,0.1-0.2,0.2-0.4c0.1-0.3,0.2-0.5,0.3-0.8
						c0,0,0,0,0,0c0.1-0.1,0.2-0.3,0.3-0.4c0.1-0.1,0.1-0.2,0.1-0.2c0.1-0.1,0.1-0.3,0.1-0.4c0,0,0,0,0,0c0.1-0.1,0.2-0.1,0.2-0.3
						c0,0,0-0.1,0-0.1c0.1-0.1,0.1-0.2,0.2-0.3c0.1-0.1,0.1-0.3,0.1-0.4c0-0.1,0.1-0.2,0.1-0.4c0.1-0.2,0.1-0.4,0.2-0.7
						c0-0.2,0.1-0.4,0.1-0.5c0-0.1,0-0.2,0-0.3c0,0,0,0,0,0c0,0.2,0,0.5,0,0.7c0,0.2,0,0.4,0,0.6c0,0.3,0.1,0.5-0.1,0.8
						c-0.1,0.2-0.1,0.4-0.2,0.6c0,0.1-0.1,0.1-0.1,0.2c0,0.1-0.1,0.3-0.1,0.4c0,0,0,0.1,0,0.1c0,0,0.1,0,0.1,0
						c0.3-0.1,0.6-0.3,0.9-0.4c0.2-0.1,0.3-0.2,0.5-0.2c0.1,0,0.2,0,0.4-0.1c0.1,0,0.2,0,0.3,0c0.2,0.1,0.4,0.2,0.6,0.3
						c0.3,0.2,0.6,0.4,0.9,0.5c0.2,0.1,0.4,0.3,0.7,0.4c0.2,0.1,0.4,0.2,0.6,0.3c0.1,0.1,0.2,0.1,0.3,0.2c0.1,0.1,0.3,0.3,0.4,0.5
						c0,0,0,0.1,0.1,0.1c0.2,0.1,0.3,0.3,0.4,0.4c0.1,0.1,0.1,0.2,0.1,0.3c0,0.2,0,0.5,0,0.7c0,0.3,0,0.6,0,0.8c0,0.3,0,0.5-0.2,0.7
						c-0.1,0.1-0.2,0.3-0.3,0.4c-0.1,0.1-0.2,0.3-0.4,0.4c-0.1,0.1-0.1,0.2-0.2,0.3c-0.1,0.2-0.2,0.4-0.3,0.5
						c-0.3,0.3-0.6,0.6-0.9,0.9c-0.2,0.2-0.4,0.4-0.6,0.5c0,0,0,0,0,0c-0.1,0.3-0.3,0.5-0.5,0.7c-0.1,0.2-0.3,0.4-0.1,0.6
						c0.1,0.1,0.1,0.3,0.2,0.4c0.1,0.2,0.1,0.3,0.2,0.5c0,0.1,0,0.1,0,0.2c0,0.1,0.1,0.1,0.1,0.2c0.1,0.2,0.2,0.3,0.2,0.5
						c0.1,0.2,0.3,0.4,0.4,0.6c0,0,0,0,0,0c0.1,0.1,0.1,0.2,0.2,0.3c0.1,0.1,0.2,0.2,0.2,0.3c0,0.2,0.2,0.3,0.2,0.5
						c0,0.1,0.1,0.2,0.1,0.3c0.2,0.3,0.3,0.6,0.5,0.9c0.1,0.2,0.2,0.4,0.4,0.6c0.2,0.3,0.4,0.5,0.6,0.7c0.2,0.2,0.3,0.4,0.5,0.6
						c0.2,0.2,0.4,0.5,0.6,0.7c0.1,0.1,0.2,0.2,0.3,0.3c0.3,0.2,0.5,0.5,0.8,0.7c0.3,0.2,0.5,0.5,0.8,0.7c0.2,0.2,0.5,0.2,0.5,0.5
						c0,0.1,0,0.2,0,0.2c-0.1,0.1-0.3,0-0.3,0c-0.2-0.2-0.4-0.4-0.6-0.6c-0.2-0.2-0.4-0.4-0.6-0.6c-0.2-0.2-0.4-0.4-0.6-0.6
						c-0.2-0.2-0.4-0.4-0.6-0.6c-0.1-0.1-0.3-0.3-0.4-0.5c-0.1-0.1-0.1-0.2-0.2-0.4c-0.2-0.2-0.3-0.4-0.5-0.6
						c-0.2-0.3-0.4-0.6-0.6-0.9c-0.1-0.1-0.2-0.3-0.3-0.4c-0.2-0.3-0.4-0.6-0.6-1c-0.1-0.2-0.2-0.3-0.3-0.4
						c-0.1-0.2-0.3-0.4-0.4-0.7c-0.1-0.1-0.2-0.2-0.2-0.4c-0.1-0.1-0.1-0.2-0.2-0.3c-0.1-0.2-0.2-0.3-0.3-0.5c0-0.1,0-0.1-0.1-0.2
						c-0.1-0.2-0.2-0.4-0.2-0.6c-0.1-0.1-0.1-0.3-0.1-0.4c-0.1,0.1-0.1,0.1-0.2,0.2c0,0-0.1,0.1-0.1,0.1c-0.1,0.1-0.1,0.2-0.3,0.3
						c-0.1,0-0.1,0.1-0.1,0.1c-0.1,0.1-0.1,0.2-0.2,0.2c-0.1,0.1-0.2,0.2-0.3,0.3c-0.1,0.2-0.2,0.3-0.4,0.3c-0.2,0-0.5,0-0.7-0.1
						c-0.3-0.1-0.6-0.2-1-0.3c-0.2-0.1-0.4-0.1-0.5-0.3c-0.3-0.3-0.5-0.6-0.6-0.9c-0.1-0.2-0.2-0.4-0.1-0.6c0-0.1,0-0.3,0-0.4
						c0-0.1,0-0.1,0-0.2c0-0.2,0-0.4,0-0.6c0-0.1,0-0.3,0.1-0.4c0.1-0.1,0.3-0.3,0.4-0.4c0.1-0.1,0.3-0.1,0.4-0.1c0,0,0,0,0,0
						c-0.1,0.1-0.2,0.2-0.2,0.3c-0.1,0.1-0.2,0.2-0.2,0.3c0,0.2,0,0.4,0,0.7c0,0,0,0.1,0,0.1c0,0.1,0,0.1,0,0.2c0,0.1,0,0.1,0,0.2
						c0,0.1,0,0.1,0,0.2c0,0.2,0.1,0.3,0.1,0.5c0,0.3,0.1,0.6,0.3,0.8c0.1,0.1,0.2,0.2,0.4,0.2c0,0,0.1,0,0.1,0.1
						c0.1,0.1,0.2,0.1,0.4,0.2c0.1,0,0.2,0,0.2,0.1c0.2,0.1,0.4,0.2,0.6,0.1c0.1,0,0.2-0.1,0.3-0.1c0.1-0.1,0.1-0.1,0.2-0.2
						c0,0,0-0.1,0.1-0.1c0.1-0.1,0.1-0.2,0.2-0.4c0-0.1,0.1-0.1,0.2-0.1c0.2-0.2,0.3-0.4,0.5-0.6c0.2-0.2,0.4-0.4,0.6-0.6
						c0.2-0.2,0.4-0.3,0.5-0.5c0.2-0.2,0.4-0.4,0.7-0.6c0.1-0.1,0.3-0.3,0.4-0.4c0.1-0.1,0.2-0.1,0.3-0.2c0.1-0.1,0.3-0.2,0.4-0.4
						c0.2-0.3,0.4-0.5,0.6-0.8c0.2-0.2,0.4-0.5,0.5-0.7c0.1-0.1,0-0.3,0.1-0.5c0-0.1,0-0.2,0.1-0.3c0-0.1,0-0.1,0-0.2
						c0-0.1,0-0.3,0-0.4c0-0.2,0-0.4-0.1-0.6c0-0.1,0-0.3,0-0.4c0-0.1,0-0.1-0.1-0.2c-0.2-0.1-0.5-0.2-0.7-0.4
						c-0.2-0.2-0.4-0.4-0.6-0.6c0,0-0.1-0.1-0.1-0.2c-0.2-0.2-0.4-0.3-0.6-0.5c-0.3-0.2-0.6-0.4-0.9-0.5c-0.2-0.1-0.4-0.2-0.6-0.3
						c-0.3-0.2-0.5-0.1-0.8,0c-0.2,0.1-0.4,0.1-0.6,0.2c-0.1,0-0.1,0-0.2,0c-0.2,0.1-0.4,0.2-0.6,0.4c-0.2,0.2-0.3,0.4-0.3,0.7
						c0,0,0,0.1-0.1,0.1c-0.1,0.1-0.1,0.1-0.1,0.2c0,0.1,0,0.2-0.1,0.3c-0.1,0.1-0.3,0.2-0.4,0.4c-0.2,0.2-0.3,0.4-0.4,0.6
						c-0.1,0.1-0.1,0.2-0.2,0.3c-0.1,0.2-0.2,0.5-0.3,0.7c-0.1,0.1-0.2,0.3-0.3,0.4c-0.2,0.3-0.3,0.6-0.5,0.9
						c-0.1,0.2-0.2,0.4-0.2,0.5c-0.1,0.2-0.1,0.5-0.2,0.7c0,0.1-0.1,0.2-0.1,0.3c0,0.1-0.1,0.3-0.1,0.4c-0.1,0.2-0.2,0.4-0.3,0.7
						c0,0,0,0.1,0,0.1c0,0.2,0,0.3-0.1,0.5c0,0,0,0.1,0,0.1c0.1,0.5,0.3,1,0.5,1.5c0.1,0.1,0.1,0.2,0.2,0.3c0.2,0.2,0.3,0.6,0.5,0.8
						c0.1,0.1,0.1,0.2,0.2,0.4c0.1,0.1,0.1,0.3,0.2,0.4c0.1,0.2,0.1,0.4,0.2,0.6c0.2,0.3,0.3,0.6,0.6,0.8c0.1,0.1,0.3,0.3,0.4,0.4
						c0.1,0.1,0.3,0.3,0.4,0.4c0.2,0.2,0.3,0.5,0.5,0.7c0.1,0.1,0.2,0.2,0.1,0.4c-0.1,0.3-0.3,0.5-0.5,0.7c0,0,0,0,0,0
						C40.1,39,40,39.1,40,39.1c-0.2,0.2-0.3,0.3-0.5,0.5c-0.1,0.1-0.2,0.2-0.3,0.3c-0.2,0.2-0.3,0.4-0.4,0.6
						c-0.1,0.1-0.2,0.3-0.3,0.4c-0.2,0.2-0.3,0.5-0.5,0.7c-0.1,0.1-0.2,0.2-0.2,0.3c0,0,0,0,0,0c-0.1,0.2-0.3,0.3-0.3,0.5
						c-0.1,0.2-0.2,0.3-0.4,0.5c-0.1,0.1-0.2,0.1-0.2,0.2c-0.1,0.1-0.1,0.1-0.2,0.1c-0.2-0.1-0.3-0.1-0.5-0.2
						c-0.2-0.1-0.4-0.1-0.6-0.1c-0.2,0-0.4-0.1-0.5,0c0,0-0.1,0-0.1,0c-0.2,0-0.4-0.1-0.6-0.1c0,0,0,0,0,0c-0.1,0-0.2-0.1-0.2-0.1
						c0,0.1-0.1,0.2-0.1,0.3c0,0.2-0.1,0.3-0.1,0.5c-0.1,0.2-0.2,0.4-0.2,0.7c-0.1,0.3-0.1,0.5-0.2,0.8c-0.1,0.4-0.2,0.8-0.2,1.2
						c0,0.1,0,0.3,0,0.4c0,0.1,0,0.2,0,0.4c0,0.1,0,0.2,0,0.4c0,0.3-0.1,0.6-0.1,0.9c0,0,0,0,0,0.1c0,0.1-0.1,0.2-0.1,0.3
						c0,0.2,0.1,0.4,0,0.6c-0.1,0.1,0,0.3,0,0.5c0,0.1,0,0.2,0,0.2c-0.1,0.3-0.1,0.5-0.1,0.8c0,0.3-0.1,0.6-0.1,0.9
						c0,0.1-0.1,0.3-0.1,0.4c0,0.2,0,0.4,0,0.7c0,0.1-0.1,0.3-0.1,0.4c0,0.4,0,0.8-0.1,1.2c0,0.3-0.1,0.5-0.1,0.8
						c0,0.1,0.1,0.2,0.1,0.2c0,0.1,0,0.2-0.1,0.2c0,0-0.1,0-0.2,0c-0.1,0-0.1-0.1-0.2-0.1c-0.3,0-0.6-0.1-0.9-0.3
						c-0.3-0.2-0.6-0.4-0.9-0.6c-0.4-0.2-0.9-0.4-1.4-0.7c-0.2-0.1-0.5-0.2-0.7-0.4c-0.1-0.1-0.2-0.3-0.3-0.4c0,0.2,0.1,0.3,0.1,0.4
						c-0.2-0.1-0.4-0.2-0.3-0.5c0-0.3,0-0.6,0-0.9c0-0.3,0-0.5,0-0.8c0-0.2,0.1-0.5,0.1-0.7c0-0.2,0-0.4,0.1-0.6c0-0.1,0-0.2,0-0.2
						c0-0.2,0.1-0.4,0.1-0.6c0.1-0.6,0.2-1.1,0.1-1.7c0-0.2,0-0.4,0-0.7c0-0.2,0-0.5,0.1-0.7c0-0.2,0-0.4,0-0.6
						c0.1-0.4,0.2-0.8,0.3-1.2c0.1-0.4,0.2-0.8,0.3-1.2c0-0.1,0.1-0.3,0.1-0.4c0.1-0.4,0.1-0.9,0.2-1.3c0.1-0.5,0.2-1.1,0.3-1.6
						c0.1-0.5,0.2-0.9,0.3-1.4c0.1-0.2,0.1-0.5,0.2-0.7c0.1-0.4,0.3-0.8,0.4-1.2c0.1-0.3,0.2-0.6,0.3-0.8c0.1-0.4,0.2-0.8,0.4-1.2
						c0.2-0.5,0.3-1,0.5-1.5c0.2-0.6,0.5-1.1,0.7-1.6c0.2-0.4,0.4-0.8,0.6-1.2c0.1-0.2,0.2-0.4,0.3-0.7c0.1-0.3,0.2-0.6,0.4-0.8
						c0.2-0.4,0.3-0.8,0.5-1.1c0.1-0.2,0.2-0.4,0.3-0.6c0.1-0.3,0.2-0.5,0.3-0.8c0.1-0.4,0.4-0.8,0.6-1.2c0.1-0.2,0.2-0.5,0.3-0.7
						c0.1-0.2,0.1-0.4,0.2-0.6c0.1-0.3,0.2-0.5,0.3-0.8c0.1-0.2,0.2-0.5,0.3-0.7c0.2-0.5,0.4-0.9,0.6-1.4c-0.1,0-0.1,0.1-0.1,0.1
						c-0.2,0.1-0.5,0.2-0.7,0.3c-0.1,0.1-0.3,0.1-0.4,0.1c-0.2,0.1-0.3,0.3-0.5,0.3c0,0-0.1,0.1-0.1,0.1c-0.1,0.1-0.3,0.2-0.4,0.3
						c-0.1,0.1-0.2,0.1-0.3,0.2c0,0,0,0,0,0c0,0,0,0-0.1-0.1c-0.3,0.2-0.5,0.3-0.8,0.5c-0.4,0.1-0.7,0.3-1.1,0.4
						c-0.3,0-0.6,0.1-0.9,0.2c-0.2,0.1-0.5,0.1-0.7,0.1c-0.1,0-0.2,0-0.3-0.1c0,0-0.1-0.1-0.1-0.1c-0.2,0-0.5,0-0.7,0
						c-0.1,0-0.3,0.1-0.4,0.1c-0.3,0.1-0.6,0.2-1,0.2c-0.1,0-0.1,0.1-0.2,0.1c-0.1,0-0.3,0-0.4,0c0,0,0,0-0.1,0
						c-0.1,0.1-0.2,0.1-0.4,0.1c-0.1,0-0.2,0-0.2,0c0,0.1,0,0.1-0.1,0.1c-0.1,0-0.1,0-0.1,0.1c0,0.1,0,0.1-0.1,0.2
						c-0.2,0.1-0.4,0.2-0.6,0.3c0,0,0,0-0.1,0c-0.2,0.1-0.3,0.1-0.5,0.2c-0.1,0-0.2,0.1-0.2,0.1c-0.1,0-0.1,0.1-0.2,0.1
						c-0.2,0.1-0.3,0.2-0.5,0.3c-0.1,0.1-0.2,0.2-0.2,0.3c0,0,0.1,0,0.1-0.1c0,0,0.1-0.1,0.1-0.1c0.2,0,0.4-0.1,0.6,0
						c0.2,0.1,0.4,0.1,0.6,0c0,0,0.1,0,0.1,0c0.2,0.1,0.5,0,0.7,0c0.1,0,0.3-0.1,0.4-0.1c0.2,0,0.3-0.1,0.4-0.2
						c0.1-0.1,0.3-0.2,0.4-0.4c0.1-0.1,0.2-0.1,0.3-0.1c0.1,0,0.2,0,0.3,0.1c0,0,0,0.1-0.1,0.2c0,0-0.1,0.1-0.1,0.1
						c-0.1,0.1-0.2,0.1-0.2,0.2c-0.1,0.1-0.2,0.3-0.3,0.4c-0.1,0.1-0.2,0.3-0.3,0.4c0,0-0.1,0.1-0.1,0.1c-0.1,0-0.2,0-0.2,0.1
						c-0.1,0-0.2,0.1-0.2,0c-0.1-0.1-0.2-0.1-0.4,0c-0.1,0.1-0.3,0.1-0.4,0.1c-0.1,0-0.3-0.1-0.4-0.1c-0.2,0-0.4,0-0.6-0.1
						c-0.4-0.1-0.7,0-1,0.1c0.2,0.3,0.3,0.6,0.4,1c-0.1,0-0.1,0-0.1-0.1c0-0.1-0.1-0.1-0.1-0.2c-0.1-0.2-0.2-0.4-0.3-0.6
						c-0.1,0.1-0.3,0.2-0.4,0.2c-0.2,0.1-0.3,0.2-0.2,0.4c0.1,0.1,0.1,0.2,0.1,0.2c0.1,0.2,0.1,0.3,0.2,0.5c0.1,0.2,0.2,0.4,0.4,0.6
						c0.1,0.1,0.2,0.1,0.3,0c0.1-0.1,0.1-0.2,0.1-0.4c0-0.1,0.1-0.2,0.2-0.1c0.1,0,0.3,0.4,0.2,0.5c-0.1,0.2-0.3,0.3-0.5,0.4
						c-0.1,0-0.3,0.1-0.5,0c-0.2-0.1-0.3-0.3-0.4-0.4c-0.2-0.3-0.3-0.6-0.4-0.8c0,0,0,0,0-0.1c0-0.1-0.1-0.3-0.1-0.4c0,0,0,0,0,0
						c-0.1,0-0.1,0.1-0.2,0.1c-0.1,0.1-0.3,0.2-0.4,0.1c-0.1,0-0.2,0-0.2-0.1c0-0.1,0-0.1,0-0.2c0,0,0,0,0,0
						c-0.4,0.2-0.8,0.4-1.3,0.5c-0.1,0-0.2,0-0.2,0c-0.2-0.1-0.4-0.2-0.5-0.3c-0.1,0-0.1-0.1-0.1-0.1c0-0.1,0.1-0.1,0.2-0.1
						c0.2,0,0.4,0,0.6,0c0.2,0,0.4,0,0.6-0.1c0.3,0,0.5-0.2,0.7-0.3c0.2-0.1,0.4-0.2,0.6-0.3c0.1-0.1,0.3-0.1,0.4-0.2
						c0.2-0.2,0.5-0.4,0.7-0.5c0.1-0.1,0.2-0.2,0.3-0.3c0.3-0.2,0.6-0.4,0.9-0.5c0,0,0.1-0.1,0.1-0.1c0.2,0,0.4-0.2,0.6-0.4
						c-0.1,0-0.1,0-0.2,0c-0.2,0-0.3,0.1-0.5,0.2c-0.2,0-0.3,0.1-0.5,0.1c-0.2,0-0.3,0.1-0.5,0.1c-0.2,0-0.4,0.1-0.5,0.1
						c-0.1,0-0.3,0.1-0.4,0.1c-0.3,0.1-0.5,0.1-0.8,0.2c-0.2,0.1-0.5,0.1-0.7,0.2c-0.2,0.1-0.4,0.1-0.6,0.2c-0.1,0-0.2,0.1-0.3,0.1
						c-0.3,0-0.6,0.2-0.9,0.3c-0.2,0.1-0.3,0.2-0.5,0.2c-0.3,0-0.6,0.1-0.9,0.3c0.2,0.4,0.2,0.8,0.1,1.1c0,0,0,0.1,0,0.1
						c0,0.2,0.1,0.4,0.1,0.6c0,0.1,0.1,0.2,0.2,0.3c0.1,0.1,0.3,0.2,0.5,0.4c0.1,0.1,0.2,0.2,0.4,0.4c0.2,0.1,0.3,0.3,0.5,0.4
						c0.1,0.1,0.1,0.2,0.2,0.3c0.1,0.2,0.3,0.4,0.2,0.6c0,0,0,0,0,0.1c0,0.4,0,0.8-0.2,1.1c-0.2,0.3-0.3,0.7-0.5,1
						c0,0.1-0.1,0.1-0.1,0.1c0.1-0.2,0.1-0.5,0.2-0.7c0.1-0.2,0.2-0.4,0.3-0.7c0-0.1,0.1-0.2,0.1-0.2c0-0.1,0-0.3,0-0.4
						c0-0.1-0.1-0.3-0.1-0.4c0-0.3-0.1-0.5-0.3-0.7c0,0-0.1-0.1-0.2-0.1c-0.1,0-0.2,0-0.3,0.1c-0.3,0-0.7,0-1,0.1
						c-0.3,0-0.6,0.1-0.9,0.1c0,0-0.1,0-0.1,0c-0.1,0-0.1,0.1-0.2,0.1c-0.3,0-0.6,0.1-0.9,0c-0.1,0-0.3,0-0.4-0.1
						c0-0.1-0.1-0.1-0.2-0.1c0,0-0.1,0-0.1-0.1c0-0.2-0.1-0.3-0.1-0.5c0-0.2,0-0.4,0-0.7c-0.4,0.3-0.5,0.7-0.7,1.1
						c0,0.1-0.1,0.2-0.2,0.2c-0.2,0-0.4,0-0.7-0.1c-0.2,0-0.4-0.1-0.6,0c-0.1,0-0.1,0-0.2,0c-0.1,0-0.2-0.1-0.4-0.1
						c-0.2,0-0.3,0-0.5,0c-0.2,0-0.4,0-0.6-0.1c-0.1-0.1-0.2-0.1-0.3-0.2c0-0.1-0.1-0.1-0.1-0.2c-0.1,0-0.3-0.1-0.2-0.2
						c0-0.1,0-0.2,0.1-0.3c0-0.1,0-0.2,0.1-0.4c0-0.2,0-0.4,0.1-0.5c0-0.2,0.1-0.3,0.1-0.5c0-0.2,0-0.5,0.1-0.7
						c0.1-0.2,0.1-0.3,0.1-0.5c0-0.2,0-0.4,0.1-0.6c0.1-0.3,0.2-0.6,0.3-1c0-0.1,0.1-0.3,0.1-0.4c0.2-0.4,0.4-0.9,0.5-1.4
						c0.1-0.3,0.2-0.6,0.3-0.8c0.1-0.3,0.2-0.5,0.3-0.8c0.1-0.2,0.3-0.4,0.4-0.6c0.2-0.3,0.3-0.7,0.5-1.1c0.1-0.1,0.1-0.2,0.2-0.3
						c0.2-0.2,0.4-0.5,0.6-0.7c0.1-0.1,0.2-0.2,0.3-0.3c0.1-0.1,0.2-0.2,0.2-0.4c0.1-0.2,0.3-0.5,0.5-0.7c0.1-0.1,0.2-0.2,0.3-0.3
						c0.2-0.3,0.4-0.6,0.6-0.9c0.1-0.2,0.3-0.4,0.4-0.5c0.1-0.2,0.3-0.3,0.4-0.5c0.1-0.2,0.2-0.3,0.4-0.5c0.1-0.2,0.3-0.3,0.5-0.5
						c0.3-0.3,0.5-0.6,0.8-0.9c0.1-0.1,0.3-0.2,0.4-0.4c0.2-0.3,0.5-0.5,0.8-0.7c0.3-0.1,0.6-0.3,0.8-0.5c0.3-0.2,0.5-0.5,0.9-0.6
						c0,0,0,0,0.1-0.1c0,0,0.1-0.1,0.1-0.1c0.2-0.1,0.3-0.2,0.5-0.4c0.2-0.1,0.3-0.2,0.5-0.3c0.2-0.1,0.4-0.2,0.5-0.3
						c0.1-0.1,0.2-0.2,0.4-0.2c0,0,0,0,0,0c0.1-0.1,0.2-0.1,0.3-0.2c0.4-0.2,0.7-0.5,1.1-0.6C25.8,8,26,7.9,26.2,7.8
						c0.1,0,0.2-0.1,0.3-0.1c0.2-0.1,0.4-0.1,0.6-0.2c0.2-0.1,0.4-0.1,0.5-0.1c0.2,0,0.4-0.1,0.6-0.1c0.2-0.1,0.4-0.2,0.6-0.3
						c0.2-0.1,0.5-0.2,0.7-0.3c0.4-0.2,0.8-0.3,1.2-0.4c0.2,0,0.4-0.1,0.6-0.1c0.2,0,0.3-0.1,0.5-0.1c0.2,0,0.4,0,0.6-0.1
						c0.3-0.1,0.6-0.1,0.9-0.2c0.2-0.1,0.5-0.2,0.7-0.2c0,0,0,0,0.1,0c0.2,0,0.3-0.1,0.5-0.1c0.3,0,0.5,0,0.8,0c0.3,0,0.6,0,0.9,0
						c0.2,0,0.3,0,0.5,0c0.2,0,0.4,0,0.6,0c0.1,0,0.2,0,0.4,0c0.1,0,0.3,0,0.4,0c0.2,0,0.4-0.1,0.5,0c0,0,0,0,0,0c0.1,0,0.1,0,0.2,0
						c0.1,0,0.2,0,0.4,0c0.2,0,0.4,0,0.7,0c0.1,0,0.2,0.1,0.3,0.1c0.2,0,0.4,0,0.6,0c0.2,0,0.5,0.1,0.7,0.1c0.2,0,0.5,0.1,0.7,0.2
						c0.1,0,0.1,0.1,0.2,0.1c0.2,0.1,0.5,0.2,0.7,0.2c0.3,0.1,0.6,0.3,0.9,0.3c0.2,0,0.4,0.2,0.7,0.2c0.1,0,0.3,0.1,0.4,0.1
						c0.1,0,0.3,0,0.4,0.1C45.7,7,45.8,7,46,7c0,0,0,0,0.1,0c0.2,0.1,0.4,0.2,0.6,0.3c0,0,0.1,0,0.1,0c0.1,0,0.3,0,0.4,0.1
						c0,0,0.1,0.1,0.2,0.1c0,0,0.1,0,0.1,0c0.2,0.1,0.4,0.2,0.6,0.3c0.1,0,0.1,0.1,0.2,0.1c0.3,0,0.4,0.3,0.6,0.3c0,0,0,0,0,0
						c0,0.1,0.1,0.1,0.2,0.1c0.1,0,0.3,0.1,0.4,0.1C49.8,8.7,50,8.9,50.2,9c0.2,0.1,0.4,0.3,0.6,0.4c0.1,0,0.1,0.1,0.2,0.2
						c0.2,0.1,0.5,0.3,0.7,0.4c0.3,0.2,0.6,0.5,0.9,0.7c0.1,0.1,0.2,0.2,0.3,0.3c0.2,0.1,0.3,0.3,0.5,0.4c0.3,0.2,0.5,0.5,0.8,0.7
						c0.1,0.1,0.1,0.1,0.2,0.1c0.1,0.1,0.3,0.2,0.4,0.1c0,0,0.1,0,0.1,0c0.2-0.1,0.4-0.1,0.5-0.2c0.2-0.1,0.4-0.2,0.6-0.3
						c0.1,0,0.2-0.1,0.2-0.1c0.1,0,0.2-0.1,0.2-0.1c0,0,0.1-0.1,0.1-0.1c0.1-0.1,0.3-0.1,0.4-0.2c0.2-0.1,0.3-0.2,0.5-0.3
						c0.2-0.1,0.4-0.2,0.6-0.2c0.2-0.1,0.5-0.2,0.7-0.3c0.2-0.1,0.4-0.2,0.6-0.3c0.3-0.2,0.6-0.4,1-0.5c0.2-0.1,0.5-0.2,0.7-0.3
						c0.2-0.1,0.4-0.3,0.7-0.4c0,0,0,0,0.1,0c0.3-0.1,0.5-0.3,0.8-0.4c0.1,0,0.1-0.1,0.2-0.1c0.2-0.1,0.4-0.3,0.7-0.4
						c0.1-0.1,0.2-0.1,0.3-0.2c0.3-0.2,0.6-0.4,1-0.5c0.1-0.1,0.3-0.2,0.4-0.2c0.2-0.1,0.4-0.1,0.6-0.2c0.3-0.2,0.7-0.3,1-0.5
						c0.2-0.2,0.5-0.3,0.8-0.4C67.6,6,67.7,6,67.9,6c0.3,0,0.4,0.1,0.5,0.2c0,0.1,0.1,0.1,0.1,0.2c0.1,0.1,0.2,0.2,0.3,0.3
						C69,6.8,69.1,6.9,69.2,7c0.2,0.1,0.3,0.2,0.4,0.4c0.1,0.1,0.2,0.3,0.4,0.4c0.2,0.2,0.4,0.4,0.5,0.6c0.1,0.1,0.2,0.3,0.4,0.4
						c0.3,0.2,0.5,0.5,0.8,0.7c0.2,0.2,0.4,0.4,0.6,0.7c0.1,0.2,0.4,0.4,0.5,0.6c0.1,0.1,0.3,0.2,0.4,0.4c0.1,0.1,0.2,0.2,0.3,0.3
						c0.1,0.1,0.2,0.3,0.3,0.4c0,0,0.1,0.1,0.1,0.1c0.1,0.2,0.1,0.3,0.2,0.5c0.1,0.1,0.1,0.2,0.2,0.3c0,0.1,0.1,0.1,0.1,0.2
						c0.2,0.3,0.3,0.5,0.5,0.8c0.1,0.1,0.1,0.3,0.2,0.4c0,0,0,0,0,0.1c0.1,0.1,0.2,0.2,0.1,0.3c0.1,0,0.2,0.1,0.2,0.2
						c0,0,0.1,0.1,0.1,0.1c0,0.1,0.1,0.1,0.1,0.1c0.1,0.3,0.2,0.6,0.4,0.9c0.1,0.2,0.2,0.4,0.3,0.6c0,0,0,0.1,0,0.1
						c0,0.1,0,0.1,0.1,0.2c0.1,0.2,0.1,0.3,0.2,0.5c0,0,0,0.1,0,0.1c0.1,0.2,0.2,0.4,0.3,0.6c0.1,0.2,0.1,0.4,0.2,0.6
						c0,0.1,0.1,0.1,0.1,0.2c0,0.2,0.1,0.3,0,0.4c0,0,0,0,0,0c0.1,0.2,0.1,0.5,0.2,0.7c0,0.1,0,0.2,0,0.2c0,0,0,0.1,0,0.1
						c0.1,0.2,0.1,0.4,0,0.6c0,0,0,0,0,0c0.1,0.1,0,0.1-0.1,0.1c-0.1,0-0.2,0.1-0.3,0.1c0,0,0,0,0,0c0.1,0,0.2-0.2,0.3-0.1
						c0,0.1,0,0.2,0,0.2c0,0.2-0.1,0.3-0.1,0.5c0,0.1-0.1,0.2-0.2,0.2c-0.1,0.1-0.2,0.2-0.1,0.3c0,0.1,0,0.1,0,0.2
						c0,0.1-0.1,0.2-0.2,0.3c-0.1,0.1-0.1,0.2-0.2,0.3c0,0,0,0.1-0.1,0.1c0.1,0,0.1,0,0.2,0c0.1,0,0.2,0,0.3,0
						c0.1,0.1,0.2,0.1,0.3,0.1c0.2,0.1,0.3,0.2,0.5,0.3c0,0,0.1,0.1,0.1,0.1c0.1,0,0.2,0,0.2,0.1c0,0.1,0.1,0.1,0.1,0.2
						c0,0.2,0,0.3,0,0.5c0,0,0,0.1,0,0.1c0,0.1,0,0.2,0,0.4c0,0.1,0,0.2,0,0.3c0,0.1,0,0.3,0,0.4c0,0.1,0,0.2,0,0.3
						c0,0.2,0,0.3,0,0.5c0,0.2-0.1,0.4-0.1,0.5c0,0.2,0,0.4-0.1,0.7c0,0.2-0.1,0.4-0.2,0.6c0,0.1,0,0.2-0.1,0.3c0,0.1,0,0.2-0.1,0.3
						c0,0,0,0.1,0,0.1c0,0.1-0.1,0.2-0.1,0.3c0,0,0,0.1,0,0.1c0,0.1,0,0.3-0.1,0.4c-0.1,0.2-0.2,0.3-0.2,0.5c-0.1,0.3-0.3,0.6-0.3,1
						c0,0.2-0.2,0.5-0.2,0.7c0,0.1,0,0.1,0,0.2c0,0.2-0.2,0.3-0.2,0.5c-0.1,0.2-0.2,0.4-0.4,0.6c0,0.1-0.1,0.1-0.2,0.1
						c-0.1,0.2-0.2,0.4-0.2,0.6c0,0-0.1,0.1-0.1,0.1c-0.1,0.1-0.2,0.2-0.3,0.3c-0.2,0.2-0.3,0.4-0.4,0.7c-0.1,0.2-0.4,0.3-0.3,0.6
						c0,0,0,0.1,0,0.1c0,0.1-0.1,0.1-0.1,0.2c-0.1,0-0.1,0.1-0.2,0.1c-0.2,0-0.3,0.1-0.5,0.1c-0.2,0-0.4,0-0.5,0
						c-0.2,0.1-0.3,0.1-0.5,0.1c-0.1,0-0.2,0.1-0.3,0.1c0.1,0.1,0.1,0.3,0.2,0.5c0,0,0,0,0,0c0.1,0,0.1,0.1,0.1,0.2
						c-0.1,0.2-0.2,0.4-0.3,0.7c-0.1,0.2-0.3,0.4-0.4,0.6c-0.1,0.1-0.2,0.2-0.3,0.3c0,0,0,0,0,0.1c-0.2,0.2-0.3,0.3-0.5,0.5
						c-0.2,0.2-0.4,0.4-0.5,0.5c-0.2,0.2-0.4,0.3-0.5,0.5c-0.2,0.1-0.3,0.2-0.5,0.3c-0.2,0.1-0.3,0.3-0.5,0.5
						c-0.2,0.2-0.3,0.4-0.6,0.5c-0.2,0.1-0.3,0.2-0.4,0.3c-0.1,0.1-0.2,0.2-0.4,0.3c-0.3,0.2-0.6,0.3-0.8,0.5
						c-0.2,0.1-0.3,0.1-0.5,0c-0.2-0.1-0.2-0.2,0-0.3c0.1-0.1,0.2-0.1,0.3-0.2c0.1-0.1,0.3-0.2,0.4-0.2c0.3-0.1,0.6-0.2,0.8-0.4
						c0.1-0.1,0.1-0.1,0.2-0.2c0.2-0.1,0.3-0.1,0.5-0.2c0.3-0.2,0.5-0.4,0.8-0.6c0.2-0.2,0.5-0.4,0.7-0.5c0.3-0.3,0.6-0.6,0.9-0.8
						c0.1-0.1,0.3-0.3,0.4-0.4c0.2-0.2,0.3-0.4,0.5-0.6c0.2-0.3,0.4-0.5,0.6-0.8c0,0,0-0.1,0-0.1c-0.1-0.1-0.1-0.2-0.2-0.3
						c-0.1-0.1-0.1-0.3-0.1-0.5c0-0.1-0.1-0.3-0.1-0.4c-0.1-0.2-0.2-0.4-0.2-0.5c-0.1-0.2-0.1-0.3-0.1-0.5c-0.1-0.2,0-0.3,0.2-0.3
						c0.1,0,0.3,0,0.4,0c0.1,0,0.2,0,0.2,0.1c0.1,0.1,0.1,0.1,0.2,0.1c0.2,0,0.3,0.1,0.5,0.1c0.3,0.1,0.6,0.1,0.8,0.3
						c0,0,0.1,0,0.1,0c0.1-0.1,0.2-0.3,0.3-0.4c0.2-0.2,0.3-0.5,0.5-0.7c0.2-0.2,0.2-0.4,0.4-0.6c0.2-0.3,0.4-0.7,0.6-1
						c0.1-0.1,0.1-0.3,0.2-0.4c0-0.1,0.1-0.2,0.1-0.3c0.1-0.3,0.2-0.6,0.2-0.9c0.1-0.2,0.1-0.4,0.2-0.6c0.2-0.3,0.2-0.6,0.3-0.9
						c0.1-0.3,0.1-0.6,0.1-0.9c0-0.3,0.1-0.5,0.2-0.8c0-0.1,0.1-0.2,0-0.3c0,0,0-0.1,0-0.1c0-0.3,0.1-0.5,0.1-0.8
						c0-0.2,0-0.4,0.1-0.6c0-0.2,0.1-0.4,0.1-0.6c0-0.2,0-0.3,0-0.5c0-0.2,0-0.3,0-0.5c0,0,0-0.1,0-0.1c0-0.1,0.1-0.2,0.1-0.3
						c0-0.1,0-0.1-0.1-0.2c-0.1,0-0.2-0.1-0.3-0.1c-0.4,0-0.7-0.2-1.1-0.3c-0.5-0.2-1.1-0.4-1.6-0.5c-0.3-0.1-0.6-0.1-0.9-0.2
						c-0.2,0-0.2-0.1-0.2-0.3c0.2,0,0.3,0,0.4-0.2c0,0,0,0,0,0c0.1-0.1,0.2-0.1,0.3-0.2c0.2-0.1,0.3-0.2,0.5-0.2
						c0.2-0.1,0.4-0.1,0.5-0.2c0.3-0.3,0.8-0.4,1.2-0.6c0.1-0.1,0.3-0.1,0.5-0.2c-0.1,0-0.1-0.1-0.1-0.1c0.2,0,0.3,0,0.4,0
						c-0.1-0.1-0.1-0.1-0.2-0.2c0-0.1,0-0.1,0-0.2c-0.1-0.2-0.2-0.4-0.2-0.7c0-0.2-0.1-0.4-0.1-0.6c0,0,0-0.1,0-0.1
						c-0.1-0.2-0.1-0.3-0.2-0.5c-0.1-0.3-0.2-0.6-0.3-0.9c0,0,0-0.1-0.1-0.1c0,0-0.1-0.1-0.1-0.1c0-0.2-0.1-0.3-0.2-0.5
						c-0.1-0.3-0.3-0.5-0.5-0.8c-0.1-0.2-0.2-0.5-0.4-0.8c-0.1-0.2-0.2-0.4-0.3-0.6c-0.2-0.2-0.3-0.4-0.4-0.7c0,0,0,0,0-0.1
						c-0.1-0.1-0.2-0.2-0.2-0.3c0-0.2-0.2-0.2-0.2-0.4c-0.1-0.2-0.3-0.4-0.4-0.6c0-0.1-0.1-0.1-0.1-0.2c-0.1-0.2-0.1-0.4-0.3-0.6
						c0,0,0,0,0-0.1c-0.1-0.1-0.1-0.2-0.2-0.3c-0.2-0.2-0.3-0.5-0.5-0.7c-0.1-0.2-0.3-0.4-0.4-0.6c-0.1-0.2-0.3-0.3-0.4-0.5
						c-0.1-0.1-0.1-0.3-0.2-0.4c-0.1-0.1-0.2-0.2-0.3-0.3c-0.2-0.2-0.4-0.3-0.5-0.5c-0.2-0.2-0.3-0.3-0.5-0.5
						c-0.1-0.1-0.3-0.3-0.4-0.4c-0.2-0.2-0.4-0.4-0.6-0.5c-0.3-0.2-0.5-0.5-0.7-0.8C68.1,6.3,68,6.2,68,6.1c0,0,0,0,0,0.1
						c-0.1,0-0.1,0-0.2,0.1c-0.2,0.1-0.3,0.2-0.5,0.3c-0.2,0.1-0.3,0.2-0.5,0.3c0,0-0.1,0-0.1,0c0,0-0.1,0-0.1,0
						c-0.2,0.1-0.3,0.2-0.5,0.3c-0.3,0.2-0.7,0.4-1,0.5c-0.1,0.1-0.3,0.1-0.4,0.1c0,0-0.1,0-0.1,0c-0.2,0.1-0.5,0.3-0.7,0.4
						c-0.1,0.1-0.3,0-0.4,0.1c-0.3,0.2-0.7,0.4-1,0.6c-0.2,0.1-0.5,0.3-0.7,0.4c-0.1,0.1-0.2,0.1-0.3,0.2c-0.1,0.1-0.3,0.1-0.4,0.2
						C61,10,60.7,10,60.5,10.1c-0.1,0.1-0.3,0.1-0.5,0.2c-0.2,0.1-0.5,0.3-0.7,0.4c-0.1,0-0.2,0.1-0.2,0.1c-0.2,0.1-0.3,0.3-0.5,0.4
						c-0.2,0.1-0.5,0.2-0.7,0.4c-0.5,0.3-1,0.6-1.5,0.8c0,0-0.1,0-0.1,0.1c-0.1,0-0.1,0.1-0.2,0.1c-0.2,0.1-0.4,0.1-0.5,0.2
						c-0.1,0.1-0.2,0.1-0.4,0.2c-0.1,0-0.3,0-0.4,0.1c-0.1,0-0.2,0-0.3-0.1c-0.1-0.1-0.1-0.2-0.2-0.2c-0.1-0.1-0.2-0.1-0.2-0.2
						c-0.1-0.1-0.2-0.2-0.3-0.3c-0.1,0-0.2-0.1-0.2-0.1c-0.2-0.1-0.4-0.3-0.5-0.4c-0.1-0.1-0.3-0.2-0.4-0.3
						c-0.2-0.1-0.3-0.2-0.5-0.4c-0.2-0.1-0.3-0.3-0.5-0.4c-0.2-0.1-0.3-0.2-0.5-0.3c-0.1-0.1-0.2-0.2-0.4-0.3
						c-0.2-0.1-0.4-0.2-0.6-0.4c-0.1-0.1-0.2-0.2-0.4-0.3c-0.1-0.1-0.3-0.1-0.4-0.2c-0.2-0.2-0.5-0.3-0.7-0.4c0,0-0.1,0-0.1,0
						c-0.1-0.1-0.3-0.2-0.4-0.3c-0.2-0.1-0.4-0.2-0.5-0.3c-0.2-0.1-0.4-0.2-0.6-0.3c-0.1,0-0.3-0.1-0.4-0.1
						c-0.2-0.1-0.3-0.2-0.5-0.2c-0.1,0-0.2-0.1-0.3-0.1c-0.2-0.1-0.5-0.2-0.7-0.3c0,0,0,0,0,0c-0.1,0-0.2,0-0.2-0.1
						c0,0-0.1-0.1-0.1-0.1c-0.2-0.1-0.4-0.1-0.6-0.2c-0.4-0.1-0.7-0.2-1.1-0.3c-0.2-0.1-0.4-0.2-0.6-0.2c-0.2,0-0.4-0.1-0.5-0.2
						c-0.2-0.1-0.5-0.2-0.7-0.1c-0.4,0-0.7-0.2-1-0.1c-0.1,0-0.2,0-0.3,0c-0.2,0-0.5,0-0.7,0c-0.3,0-0.5,0-0.8-0.1
						c-0.1,0-0.2,0-0.2,0c-0.1,0-0.2,0-0.3,0c-0.2,0-0.4,0-0.6,0c-0.1,0-0.3,0-0.4,0c-0.3,0-0.6,0-0.9,0c-0.2,0-0.3,0-0.5,0
						c-0.1,0-0.2,0-0.3,0c-0.3,0-0.6,0.1-0.8,0.1c-0.3,0-0.5,0.1-0.8,0.1c-0.2,0-0.4,0.1-0.6,0.1c-0.1,0-0.2,0.1-0.4,0.1
						c-0.5,0.1-0.9,0.1-1.4,0.2c-0.7,0.1-1.4,0.3-2.1,0.6c-0.4,0.2-0.7,0.3-1.1,0.5c-0.2,0.1-0.4,0.2-0.6,0.3
						c-0.2,0.1-0.5,0.2-0.7,0.4c0,0,0,0-0.1,0c-0.2,0.1-0.3,0-0.5,0.1c-0.4,0.3-0.8,0.5-1.2,0.7c-0.1,0.1-0.3,0.1-0.4,0.2
						c-0.1,0.1-0.2,0.1-0.4,0.2c-0.1,0.1-0.2,0.2-0.4,0.2c-0.2,0.1-0.3,0.2-0.5,0.2c0,0,0,0-0.1,0c-0.2,0.1-0.4,0.2-0.6,0.3
						c-0.1,0.1-0.2,0.1-0.4,0.2c-0.1,0-0.1,0-0.2,0.1c-0.1,0-0.1,0.1-0.2,0.2c-0.1,0.1-0.3,0.1-0.4,0.2c-0.4,0.3-0.7,0.6-1.1,0.8
						c-0.1,0.1-0.1,0.1-0.2,0.2c-0.1,0.1-0.3,0.3-0.4,0.4c-0.2,0.1-0.5,0.2-0.7,0.4c-0.1,0.1-0.2,0.2-0.3,0.3
						c-0.2,0.2-0.3,0.4-0.5,0.5c-0.1,0.1-0.2,0.2-0.3,0.3c-0.2,0.2-0.4,0.3-0.5,0.5c-0.1,0.2-0.4,0.4-0.5,0.6
						c-0.2,0.3-0.4,0.6-0.6,0.9c-0.1,0.2-0.2,0.3-0.3,0.5c-0.2,0.2-0.3,0.4-0.5,0.6c-0.2,0.2-0.3,0.5-0.5,0.7c0,0.1-0.1,0.1-0.2,0.2
						c-0.2,0.2-0.3,0.4-0.4,0.5c-0.1,0.1-0.2,0.2-0.3,0.4C14,19,14,19.3,13.8,19.5c-0.1,0.2-0.2,0.4-0.3,0.6
						c-0.2,0.3-0.3,0.6-0.5,0.9c-0.1,0.3-0.3,0.5-0.4,0.8c-0.1,0.4-0.2,0.8-0.3,1.2c-0.1,0.4-0.2,0.7-0.3,1.1
						c-0.1,0.3-0.1,0.5-0.2,0.8c-0.1,0.3-0.2,0.5-0.2,0.8c0,0.1,0,0.1,0,0.2c0,0.1-0.1,0.3-0.1,0.4c0,0.3-0.1,0.5-0.1,0.8
						c0,0.2-0.1,0.4-0.1,0.6c0,0.1-0.1,0.3-0.1,0.4c0.2,0,0.4-0.1,0.6-0.1c0.2,0,0.4-0.1,0.6-0.2c0.1,0,0.2-0.1,0.4-0.2
						c0.1,0,0.2-0.1,0.4-0.1c0.2,0,0.4-0.1,0.4-0.3c0-0.2,0-0.3,0.1-0.5c0.1-0.2,0.1-0.4,0.2-0.7c0.1-0.3,0.1-0.6,0.1-0.8
						c0-0.1,0-0.1,0.1-0.2c0-0.1,0.1-0.2,0.1-0.3c0-0.1,0-0.3,0.1-0.4c0.1-0.4,0.2-0.8,0.4-1.2c0.1-0.4,0.3-0.8,0.5-1.1
						c0.1-0.1,0.1-0.3,0.2-0.4c0.1-0.3,0.2-0.6,0.2-0.8c0.1-0.3,0.2-0.5,0.2-0.8c0.1-0.4,0.2-0.8,0.3-1.2c0.1-0.3,0.2-0.6,0.3-0.9
						c0,0,0.1-0.1,0.1-0.1c0,0,0.1,0.1,0.1,0.1c0,0.2-0.1,0.4-0.1,0.5c-0.1,0.2-0.1,0.4-0.2,0.6c0,0.2-0.1,0.4-0.1,0.6
						c-0.1,0.4-0.2,0.7-0.3,1.1c-0.1,0.4-0.2,0.8-0.2,1.2c0,0,0,0,0,0.1c0,0.2-0.1,0.3-0.1,0.5c0,0.2,0,0.4,0,0.6c0,0.2,0,0.3,0,0.5
						c0,0.2,0,0.5-0.1,0.7c0,0.1-0.1,0.3-0.1,0.4c0,0.2,0,0.4,0,0.6c0,0.3,0,0.6,0,1c0,0.2,0,0.4,0,0.6c0,0.1,0,0.2,0,0.3
						c0.3-0.2,0.5-0.4,0.7-0.6c0.2-0.2,0.4-0.3,0.6-0.4c0.2-0.1,0.3-0.2,0.4-0.3c0.1-0.1,0.2-0.2,0.3-0.2c0.1,0,0.2-0.1,0.3-0.1
						c0.1,0,0.2,0,0.4-0.1c0.2,0,0.4,0,0.5-0.1c0.1,0,0.2,0,0.2-0.1c0.3-0.1,0.6-0.3,0.9-0.4c0.1-0.1,0.2-0.1,0.3-0.1
						c0.1-0.1,0.3-0.1,0.4-0.2c0.3-0.1,0.5-0.2,0.8-0.2c0.4-0.1,0.8-0.2,1.2-0.3c0.1,0,0.2-0.1,0.3-0.1c0.3,0,0.5-0.1,0.8-0.1
						c0.3,0,0.5-0.1,0.8-0.1c0.1,0,0.2,0,0.4-0.1c0.3-0.1,0.6-0.1,0.8-0.2c0.2,0,0.4,0,0.7-0.1c0.1,0,0.2,0,0.2-0.1
						c0.2-0.1,0.5-0.2,0.7-0.2c0.2,0,0.3-0.1,0.5-0.1c0,0,0,0,0.1,0c0.1,0,0.2,0,0.3-0.1c0.1,0,0.2,0,0.3,0c0.2,0,0.4-0.1,0.6-0.1
						c0.2,0,0.4,0,0.5,0c0.2,0,0.4,0,0.6-0.1c0.2,0,0.4,0,0.6-0.1c0.2,0,0.3,0,0.5-0.2c0.1-0.2,0.4-0.2,0.6-0.3
						c0.2-0.1,0.5-0.3,0.7-0.4c0.3-0.2,0.5-0.4,0.8-0.7c0.2-0.2,0.5-0.4,0.8-0.7c0,0,0,0,0.1-0.1c0.2-0.2,0.3-0.3,0.5-0.5
						c0.1-0.1,0.2-0.1,0.2-0.2c0.1-0.2,0.2-0.3,0.3-0.5c0.1-0.1,0.1-0.2,0.2-0.3c0.1-0.1,0.2-0.3,0.3-0.4c0.1-0.2,0.3-0.3,0.4-0.5
						c0.2-0.3,0.4-0.6,0.6-0.9c0.1-0.1,0.2-0.2,0.3-0.3c0.1-0.1,0.2-0.3,0.3-0.4c0.1-0.1,0.1-0.2,0.2-0.3c0.1-0.1,0.2-0.2,0.2-0.3
						c0,0,0.1-0.1,0.1-0.1c0,0,0.1,0,0.1,0.1c0.1,0,0.1-0.1,0.2-0.1c0,0,0,0.1,0,0.1c0,0-0.1,0.1-0.1,0.1c0,0.2,0,0.4-0.1,0.7
						c0,0.3-0.1,0.7-0.2,1c-0.1,0.5-0.3,1-0.5,1.5c-0.2,0.4-0.4,0.7-0.5,1.1c-0.1,0.1-0.1,0.2-0.1,0.4c-0.1,0.3-0.3,0.6-0.4,0.9
						c-0.1,0.3-0.2,0.5-0.3,0.8c-0.1,0.3-0.2,0.5-0.3,0.8c-0.1,0.2-0.1,0.4-0.2,0.6c-0.1,0.3-0.2,0.5-0.4,0.8
						c-0.1,0.3-0.3,0.6-0.4,0.9c-0.2,0.3-0.3,0.7-0.5,1c-0.1,0.2-0.1,0.4-0.2,0.7c-0.1,0.2-0.1,0.3-0.2,0.5
						c-0.2,0.4-0.4,0.9-0.6,1.3c0,0.1-0.1,0.2-0.1,0.3c-0.1,0.2-0.2,0.4-0.3,0.6c-0.1,0.1-0.1,0.3-0.2,0.4c-0.2,0.3-0.3,0.6-0.5,0.9
						c-0.3,0.5-0.6,1-0.8,1.6c-0.3,0.8-0.6,1.6-0.9,2.4c-0.1,0.4-0.3,0.8-0.4,1.2c-0.2,0.6-0.4,1.2-0.6,1.7
						c-0.1,0.3-0.2,0.6-0.3,0.9c-0.1,0.4-0.2,0.9-0.3,1.3c-0.1,0.6-0.3,1.2-0.4,1.8c-0.1,0.5-0.2,1-0.3,1.5
						c-0.1,0.5-0.2,0.9-0.3,1.4c-0.1,0.4-0.2,0.9-0.2,1.3c0,0.3,0,0.6-0.1,0.9c0,0.4,0,0.8,0,1.2c0,0.3-0.1,0.6-0.1,0.8
						c0,0.3,0,0.6,0,0.9c0,0,0,0.1,0,0.1c0,0.2,0,0.5-0.1,0.7c0,0.1,0,0.3,0,0.4c0,0.3,0,0.6-0.1,0.8c0,0.3,0,0.5,0,0.8
						c0,0.1,0,0.1,0.1,0.2c0.1,0,0.2,0.1,0.2,0.2c0.2,0.2,0.3,0.4,0.5,0.5c0.4,0.2,0.9,0.4,1.4,0.6c0.2,0.1,0.4,0.2,0.7,0.2
						c0.2,0.1,0.3,0.2,0.5,0.2c0.1,0,0.2,0,0.3,0.1c0,0.1,0.2,0.1,0.2,0.1c0,0,0.1,0,0.1,0c0.1,0.1,0.2,0.1,0.4,0.2
						C31.9,54.9,31.9,54.6,32,54.4z"/>
					<path class="st3" d="M22.5,52.9c0,0.1,0,0.2-0.1,0.3c-0.1,0.1,0,0.2-0.1,0.3c0,0.2,0.1,0.2,0.3,0.3c0.1,0.1,0.2,0,0.3-0.1
						c0.1-0.1,0.3-0.2,0.5-0.1c0.2,0,0.3,0,0.5,0c0.2,0,0.4-0.1,0.6-0.1c0.1,0,0.3,0,0.5,0c0.2,0,0.5-0.1,0.5-0.2c0,0,0-0.1,0-0.1
						c0-0.1,0-0.1,0.1-0.2c0,0,0.1-0.1,0.1-0.1c0-0.1,0.1-0.1,0.1-0.2c0-0.1,0.1-0.2,0.1-0.3c0-0.1,0.1-0.2,0.2-0.3
						c0-0.1,0.1-0.1,0.1-0.2c0,0,0-0.1,0-0.1c0.1-0.3,0.3-0.5,0.3-0.8c0.1-0.2,0.1-0.4,0-0.7c0-0.1,0-0.3,0-0.4
						c0.1-0.3,0.1-0.5,0.1-0.8c0-0.1,0-0.1,0-0.2c-0.1,0.2-0.2,0.4-0.4,0.6c0,0,0,0,0,0c0-0.1,0.1-0.3,0.1-0.4
						c0.1-0.1,0.1-0.3,0-0.4c0-0.1,0-0.3-0.1-0.4c0-0.1-0.1-0.1-0.1-0.2c0,0-0.1,0.1-0.1,0.1c-0.1,0.1-0.2,0.2-0.3,0.3
						c0.1-0.2,0-0.4,0-0.6c0-0.1,0.1-0.2,0.1-0.3c0,0,0-0.1,0.1-0.1c0,0,0-0.1-0.1-0.1c-0.1,0-0.3,0-0.4,0.1c0,0,0,0,0,0
						c0-0.1,0-0.1,0.1-0.2c0.1-0.2,0.1-0.2-0.2-0.2c-0.1-0.3-0.3-0.4-0.5-0.2c0,0,0,0,0,0c-0.3,0-0.4,0.2-0.5,0.4
						c-0.2,0.2-0.4,0.5-0.5,0.8c0,0.1-0.1,0.1-0.1,0.2c0,0,0,0-0.1,0.1c-0.1,0.2-0.2,0.4-0.3,0.6c0,0.1,0,0.1,0,0.2
						c0,0.2-0.1,0.5-0.2,0.7c0,0.1-0.1,0.3-0.1,0.4c0,0.2-0.1,0.4-0.1,0.5c0,0,0,0.1,0,0.1c-0.2,0.3-0.3,0.7-0.4,1
						c0,0.1,0,0.3,0,0.4c0,0.1,0,0.1,0,0.2C22.5,52.7,22.5,52.8,22.5,52.9z"/>
					<path class="st3" d="M21.2,41.1c0.2,0,0.3,0,0.4-0.2c0,0,0.1-0.1,0.1-0.1c0.1-0.1,0.1-0.2,0.2-0.2c0.1-0.1,0.1-0.1,0.2-0.2
						c0.2-0.1,0.2-0.1,0.1-0.3c0,0,0-0.1,0-0.1c-0.2,0.1-0.4,0.1-0.6,0.2c-0.1-0.1-0.3-0.1-0.4-0.2c0.2-0.1,0.3-0.2,0.5-0.4
						c0.1,0,0.2-0.1,0.2-0.1c0,0,0-0.1,0-0.1c0,0-0.1,0-0.1,0c-0.2,0-0.5,0.1-0.6,0.2c-0.1,0.1-0.2,0.2-0.4,0.3c0,0-0.2,0-0.2,0
						c-0.2-0.1-0.4-0.3-0.6-0.5c0-0.2,0.1-0.3,0.1-0.4c0-0.3,0-0.6,0.1-0.9c0-0.2-0.1-0.4-0.3-0.6c-0.1-0.1-0.3-0.2-0.4-0.3
						c-0.1,0-0.2,0-0.2-0.1c-0.1-0.1-0.2-0.2-0.3-0.3c-0.1-0.1-0.3-0.1-0.5-0.2c-0.2,0-0.4-0.2-0.6-0.3c-0.2-0.1-0.3-0.2-0.5-0.3
						c0,0,0,0,0,0c0-0.1-0.1-0.3-0.1-0.4c0,0,0-0.1,0-0.1c0-0.1,0-0.2,0.1-0.2c0.1,0,0.1-0.1,0.2-0.2c0.1-0.1,0.2-0.1,0.3-0.2
						c0.1-0.1,0.2-0.2,0.3-0.3c0.1-0.3,0.3-0.5,0.5-0.8c0.1-0.1,0.1-0.2,0.2-0.3c0,0,0-0.1,0-0.1c0,0,0-0.1,0-0.1c0,0,0,0.1-0.1,0.1
						c0,0,0,0.1,0,0.1c-0.2,0.2-0.3,0.4-0.5,0.6c-0.1,0.1-0.1,0.1-0.2,0.2c0,0-0.1,0-0.1,0c-0.1,0.1-0.3,0.2-0.4,0.3
						c-0.1,0.1-0.2,0.2-0.4,0.3c-0.2,0.2-0.3,0.3-0.3,0.6c0,0.3,0.2,0.5,0.3,0.7c0.1,0.1,0.3,0.2,0.5,0.3c0.2,0.1,0.4,0.3,0.7,0.4
						c0.1,0.1,0.3,0.1,0.4,0.2c0.4,0.1,0.7,0.3,0.9,0.6C20,38,20,38.2,20,38.4c0,0.1-0.1,0.2-0.1,0.3c0,0.1-0.1,0.2-0.1,0.3
						c0,0.1,0,0.1,0,0.2c-0.1,0.2,0,0.3,0.2,0.4c0.1,0,0.2,0.1,0.3,0.2c0.1,0.2,0.3,0.3,0.5,0.3c0,0.2,0,0.5,0,0.7
						c0,0,0,0.1,0.1,0.1c0,0.1,0.1,0.1,0.1,0.2c0,0,0,0.1,0.1,0.1c0.1,0,0.3,0.1,0.4,0.1c0.1,0.1,0.3,0.2,0.4,0.3
						c0.1,0,0.2,0,0.2,0.2c0,0.2,0.1,0.4,0.1,0.5c0,0.1,0.1,0.2,0.2,0.3c0,0.1,0.1,0.1,0.1,0.2c0,0.1,0,0.3,0.1,0.3
						c0.2,0.2,0.2,0.5,0.2,0.8c0.1,0.3,0.1,0.7,0.2,1c0,0.2,0.1,0.4,0.1,0.6c0,0.1,0.1,0.1,0.1,0.2c0.2,0.1,0.3,0.4,0.7,0.3
						c0.1,0,0.3,0,0.4,0.1c0.4,0.1,0.8,0.2,1.2,0.3c0.1,0,0.2,0,0.3,0c0.1,0,0.2,0,0.3,0.1c0.2,0.1,0.5,0.2,0.7,0
						c0.1-0.1,0.3-0.1,0.4-0.2c0.1,0,0.2-0.1,0.1-0.2c0-0.1-0.2-0.2-0.3-0.1c-0.2,0.1-0.4,0-0.7,0c-0.2,0-0.4-0.1-0.7,0
						c-0.2,0.1-0.4-0.1-0.7-0.1c-0.3-0.1-0.7-0.1-1-0.1c-0.3,0-0.5-0.2-0.7-0.4c-0.1-0.2-0.2-0.4-0.1-0.6c0.1-0.3-0.1-0.6-0.1-0.8
						c0-0.1,0-0.2,0-0.3c0-0.3,0-0.6-0.2-0.8c-0.1-0.2-0.2-0.4-0.1-0.7c0,0,0-0.1,0-0.1c-0.2-0.1-0.2-0.3-0.5-0.4
						c-0.2-0.1-0.4-0.2-0.7-0.4C21.5,41.2,21.4,41.2,21.2,41.1C21.3,41.1,21.2,41.1,21.2,41.1z"/>
					<path class="st3" d="M41.2,26.3C41,26.4,41,26.5,41,26.6c0.1,0.3,0.3,0.7,0.4,1c0,0.1,0,0.2-0.1,0.3c-0.1,0.1-0.2,0.1-0.2,0.2
						c-0.1,0.1-0.2,0.2-0.3,0.3c-0.2,0.1-0.3,0.3-0.4,0.4c0,0.1-0.1,0.2-0.2,0.3c0,0.1-0.1,0.1-0.1,0.2c0-0.2,0-0.5-0.1-0.6
						c0-0.1,0-0.1,0-0.2c0.1-0.3,0.2-0.5,0.2-0.8c0,0,0-0.1,0-0.1c0-0.1,0.1-0.2,0.1-0.3c0-0.1,0.1-0.1,0.1-0.2
						c0-0.3,0.2-0.5,0.3-0.7c0.1-0.1,0.1-0.2,0.1-0.2c0.1-0.2,0.3-0.4,0.5-0.5c0.3-0.2,0.6-0.3,0.9-0.5c0.1,0,0.1-0.1,0.2-0.2
						c0,0,0.1,0,0.2,0.1c0.1,0.1,0.3,0.2,0.4,0.3c0,0,0,0,0.1,0c0.2,0.1,0.4,0.2,0.6,0.3c0,0,0.1,0.1,0.1,0.1c0,0,0.1,0.1,0.1,0.1
						c0,0,0.1-0.1,0.1-0.1c0,0,0-0.1,0-0.1c-0.1-0.1-0.2-0.2-0.3-0.3c-0.1-0.1-0.2-0.3-0.3-0.4c0-0.1-0.1-0.1-0.2-0.2
						c0,0-0.1-0.1-0.1-0.1c-0.1-0.2-0.3-0.2-0.4-0.3c-0.1,0-0.1,0-0.2,0c-0.1,0-0.1,0-0.2,0c-0.1,0-0.2,0-0.2,0.1
						c-0.1,0.1-0.3,0.2-0.4,0.3c-0.1,0.1-0.2,0.2-0.3,0.4c0,0,0,0.1,0,0.1c-0.2,0.1-0.3,0.3-0.4,0.5C41,25.8,41,25.9,41,25.9
						c-0.1,0.1-0.2,0.2-0.3,0.3c-0.1,0.2-0.3,0.3-0.4,0.5c-0.1,0.1-0.1,0.3-0.1,0.4c0,0.2-0.1,0.5-0.1,0.7c0,0.1,0,0.2-0.1,0.4
						c0,0,0,0,0,0c-0.1,0.1-0.1,0.3-0.1,0.4c0,0.4,0,0.8,0.2,1.2c0,0.2,0.1,0.3,0.2,0.4c0.1,0.1,0.1,0.3,0.1,0.4
						c0,0.1-0.1,0.3-0.2,0.3c-0.1,0-0.2,0.1-0.3,0.1c0,0,0,0.1,0,0.1c0,0,0.1,0.1,0.1,0.1c0.1,0,0.3,0,0.4-0.1
						c0.2,0,0.2-0.2,0.3-0.3c0.1-0.1,0.1-0.3,0.2-0.5c0-0.1-0.1-0.2-0.1-0.3c0-0.1-0.1-0.2-0.1-0.2c-0.1-0.1-0.1-0.2-0.2-0.3
						c-0.1-0.1-0.1-0.3-0.1-0.3c0.1-0.1,0.1-0.2,0.3-0.1c0.1-0.2,0.3-0.4,0.4-0.6c0,0,0,0,0-0.1c0.4-0.1,0.5-0.5,0.8-0.8
						c0,0,0-0.1,0-0.1c0,0,0-0.1,0-0.1c0.1-0.2,0-0.3,0-0.4c-0.1-0.1-0.1-0.3-0.2-0.4c-0.1-0.1-0.1-0.3-0.3-0.4
						C41.3,26.5,41.2,26.4,41.2,26.3z"/>
					<path class="st3" d="M25.9,28.6c0.2,0.1,0.5,0.3,0.7,0.4c0.1,0,0.2,0,0.2,0c0,0,0,0,0,0c-0.2-0.2-0.3-0.4-0.5-0.6
						c0.1-0.1,0.2-0.1,0.3-0.2c0.1,0,0.2-0.1,0.3-0.1c0.3-0.1,0.5-0.2,0.8-0.4c0.1,0,0.1-0.1,0.1-0.2c-0.1-0.1-0.1-0.1-0.2-0.1
						c-0.1,0-0.2-0.1-0.3-0.1c-0.2,0-0.5,0.1-0.7,0.2c-0.3,0.1-0.5,0.1-0.8,0c-0.1,0-0.2,0.1-0.2,0.2c0,0,0,0.1,0,0.1
						c0,0.1-0.1,0.1-0.1,0.2c0,0.2-0.1,0.3-0.3,0.3c-0.1,0-0.2,0.2-0.3,0.2c0,0,0,0,0,0.1c-0.3,0.2-0.5,0.4-0.8,0.5
						c-0.1,0-0.2,0-0.3,0.1c0,0-0.1,0.1-0.1,0.2c0,0,0.1,0.1,0.2,0.1c0.1,0,0.3,0,0.4-0.1c0,0,0.1-0.1,0.1-0.1
						c0.3,0,0.5-0.2,0.6-0.3c0.1-0.1,0.2-0.1,0.4-0.1C25.7,28.8,25.8,28.7,25.9,28.6z"/>
					<path class="st3" d="M41.7,25.7c0.2,0.1,0.4,0.2,0.6,0.2c0.3,0,0.5,0.3,0.6,0.6c0,0.2,0,0.4,0,0.7c0,0,0,0.1,0,0.1
						c0,0.1,0,0.2,0,0.2c0,0.1,0,0.3,0.1,0.4c0,0.1,0,0.2,0.1,0.3c0,0,0.1,0.1,0.2,0.1c0,0,0.1-0.1,0.1-0.1c0-0.1,0.1-0.3,0.1-0.4
						c-0.1-0.4-0.2-0.8-0.2-1.2c0-0.2-0.1-0.3-0.1-0.5c-0.1-0.1-0.2-0.2-0.3-0.3c0,0-0.1-0.1-0.1-0.1c-0.1-0.1-0.3,0-0.4-0.1
						c-0.1,0-0.2,0-0.3,0C41.8,25.6,41.7,25.6,41.7,25.7z"/>
					<path class="st3" d="M23.1,38.9c0.3-0.2,0.6-0.3,0.9-0.4c0.1-0.1,0.3,0,0.4-0.1c0.1,0,0.3-0.1,0.4-0.1c0.1,0,0.2,0,0.3,0
						c0.2,0.1,0.4,0,0.6,0c0,0,0.1-0.1,0.1-0.1c0-0.2-0.2-0.3-0.4-0.3c-0.2,0-0.4,0.1-0.6,0.1c0,0-0.1,0-0.1,0c-0.1,0-0.3,0-0.4,0.1
						c0,0-0.1,0-0.1,0c-0.3,0.1-0.5,0.2-0.8,0.3c0,0-0.1,0.1-0.1,0.1C23.3,38.7,23.2,38.7,23.1,38.9C23.1,38.8,23.1,38.9,23.1,38.9
						C23.1,38.9,23.1,38.9,23.1,38.9z"/>
					<path class="st3" d="M29.6,28.6c-0.1,0-0.3,0.1-0.4,0.1c-0.2,0.1-0.4,0.3-0.6,0.4c-0.2,0.1-0.4,0.3-0.5,0.4
						c-0.1,0.1-0.3,0.1-0.4,0.3c0,0,0,0.1,0,0.1c0,0,0.1,0,0.1,0c0.1-0.1,0.3-0.2,0.4-0.3c0.3-0.2,0.5-0.5,0.8-0.7
						C29.3,28.9,29.5,28.8,29.6,28.6C29.7,28.6,29.7,28.6,29.6,28.6z"/>
					<path class="st3" d="M30.6,28.9c-0.3,0-0.5,0.1-0.6,0.2c-0.2,0.1-0.4,0.3-0.6,0.5c0,0-0.1,0.1-0.1,0.2c0,0,0.1,0.1,0.2,0.1
						c0,0,0.1,0,0.2,0c0.2-0.1,0.3-0.2,0.5-0.3C30.3,29.3,30.4,29.1,30.6,28.9z"/>
					<path class="st3" d="M20.2,36.3c-0.1,0-0.2,0-0.3-0.1c-0.2,0-0.4,0-0.5,0.2c-0.1,0.1,0,0.1,0.1,0.1c0.1,0,0.2,0,0.3,0
						c0.2,0,0.5,0.1,0.7,0.1c0.1,0,0.2-0.1,0.2-0.2c0-0.1-0.1-0.2-0.2-0.2C20.4,36.3,20.3,36.3,20.2,36.3
						C20.2,36.2,20.2,36.2,20.2,36.3z"/>
					<path class="st3" d="M18.8,26.9c0.1,0.1,0.2,0.2,0.3,0.3c0,0,0.1,0,0.1,0c0,0,0-0.1,0-0.1c0-0.1-0.1-0.2-0.1-0.3
						c0,0,0-0.1,0-0.1c0.2-0.1,0.1-0.2,0.1-0.3c0-0.1-0.2-0.1-0.3,0c0,0.1-0.1,0.1-0.1,0.2C18.8,26.7,18.8,26.8,18.8,26.9
						C18.8,26.9,18.8,26.9,18.8,26.9z"/>
				</g>
			</g>
		</g>
	</g>
</g>
</svg>
