<?xml version="1.0" encoding="utf-8"?>
<!-- Generator: Adobe Illustrator 23.0.3, SVG Export Plug-In . SVG Version: 6.00 Build 0)  -->
<svg version="1.1" id="Layer_1" xmlns="http://www.w3.org/2000/svg" xmlns:xlink="http://www.w3.org/1999/xlink" x="0px" y="0px"
	 width="282.8px" height="39.3px" viewBox="0 0 282.8 39.3" style="enable-background:new 0 0 282.8 39.3;" xml:space="preserve">
<style type="text/css">
	.st0{fill:#EF5B83;}
	.st1{fill:#FFFFFF;}
	.st2{clip-path:url(#SVGID_2_);}
	.st3{fill-rule:evenodd;clip-rule:evenodd;stroke:#000000;stroke-width:0.5;stroke-miterlimit:10;}
</style>
<title>MidBossLogo</title>
<polygon class="st0" points="36.6,35.8 0.3,35.8 9.2,4.9 45.5,4.9 "/>
<g>
	<path class="st1" d="M53,12.8l-0.7-2.6H51l-0.7,2.6h-2.1l2.1-7.4h5.5l1,1.3L56.1,9l-1.5,1.1l0.8,2.7H53z M51.5,8.5h2.4l0.3-0.3
		l0.3-0.9l-0.2-0.2h-2.4L51.5,8.5z"/>
	<path class="st1" d="M60.4,7.1l-0.3,1.1H64l-0.5,1.7h-3.9L59.3,11h4.5l-0.5,1.7h-6.6l2.1-7.4h6.6L64.9,7L60.4,7.1L60.4,7.1z"/>
	<path class="st1" d="M70.1,11.5h-2.9l-0.8,1.3h-2.1l5.1-7.4h2.1l0.9,7.4h-2.2L70.1,11.5z M69.9,9.9l-0.2-2.4l-1.5,2.4H69.9z"/>
	<path class="st1" d="M82.3,6.9L81,11.3l-2,1.5h-5.4l2.1-7.4h5.4L82.3,6.9z M80,7.6l-0.4-0.5h-2.3L76.2,11h2.3l0.6-0.5L80,7.6z"/>
	<path class="st1" d="M93.9,6.9l-1.3,4.5l-2,1.5h-4l-1.2-1.5l1.3-4.5l2-1.5h4L93.9,6.9z M90.7,10.6l0.9-3l-0.4-0.5h-2l-0.6,0.5
		l-0.9,3l0.4,0.5h2L90.7,10.6z"/>
	<path class="st1" d="M102.9,5.4l-2.1,7.4h-1.7l-2-4.4l-1.3,4.4h-2l2.1-7.4h2l1.9,4.1l1.2-4.1C101,5.4,102.9,5.4,102.9,5.4z"/>
	<path class="st1" d="M109.2,11.1l-0.5,1.7h-6.1l2.1-7.4h2.1l-1.6,5.7H109.2z"/>
	<path class="st1" d="M117.6,5.4l-4.2,4.3l-0.9,3.1h-2.1l0.9-3.1l-1.7-4.3h2.4l0.9,2.5l2.3-2.5C115.2,5.4,117.6,5.4,117.6,5.4z"/>
	<path class="st1" d="M128.1,12.8H126l1.2-4.2l-2.7,3.1h-0.8l-0.8-3.1l-1.2,4.2h-2l2.1-7.4h2.1l1,3.7l3.2-3.7h2.1L128.1,12.8z"/>
	<path class="st1" d="M133.7,7.1l-0.3,1.1h3.9l-0.5,1.7h-3.9l-0.3,1.1h4.5l-0.5,1.7H130l2.1-7.4h6.6L138.2,7L133.7,7.1L133.7,7.1z"
		/>
	<path class="st1" d="M146.5,12.8h-2.1l1.2-4.2l-2.7,3.1h-0.8l-0.8-3.1l-1.2,4.2h-2l2.1-7.4h2.1l1,3.7l3.2-3.7h2.1L146.5,12.8z"/>
	<path class="st1" d="M157,6.9l-1.3,4.5l-2,1.5h-4l-1.2-1.5l1.3-4.5l2-1.5h4L157,6.9z M153.8,10.6l0.9-3l-0.4-0.5h-2l-0.6,0.5
		l-0.9,3l0.4,0.5h2L153.8,10.6z"/>
	<path class="st1" d="M161.8,12.8l-0.7-2.6h-1.3l-0.7,2.6H157l2.1-7.4h5.5l1,1.3L164.9,9l-1.5,1.1l0.8,2.7H161.8z M160.3,8.5h2.4
		l0.3-0.3l0.3-0.9L163,7.1h-2.4L160.3,8.5z"/>
	<path class="st1" d="M170.4,7.1l-1.1,3.9h1.4l-0.5,1.7h-4.9l0.5-1.7h1.4l1.1-3.9h-1.4l0.5-1.7h4.9l-0.5,1.7
		C171.8,7.1,170.4,7.1,170.4,7.1z"/>
	<path class="st1" d="M175.4,7.1l-0.3,1.1h3.9l-0.5,1.7h-3.9l-0.3,1.1h4.5l-0.5,1.7h-6.6l2.1-7.4h6.6L179.9,7L175.4,7.1L175.4,7.1z"
		/>
	<path class="st1" d="M187.5,9.5l-0.6,2.1l-1.7,1.3h-4.6l-0.9-1.1l1.8-1.3l0.6,0.8h2.5L185,11l0.2-0.6L185,10l-3.4-0.2l-0.9-1.1
		l0.6-2.1l1.7-1.3h4.4l0.9,1.1l-1.8,1.3L185.9,7h-2.2l-0.4,0.3L183.1,8l0.1,0.2l3.4,0.2L187.5,9.5z"/>
</g>
<g>
	<path class="st1" d="M58.8,23.6c0.3,0.7,0.7,1.4,1,2.1l2.8-9.7c0.1-0.2,0.2-0.4,0.4-0.6c0.2-0.2,0.4-0.2,0.7-0.2h5.5
		c0.2,0,0.4,0.1,0.6,0.2c0.1,0.2,0.2,0.3,0.1,0.6l-5.5,19c-0.1,0.2-0.2,0.4-0.4,0.6c-0.2,0.2-0.4,0.2-0.7,0.2H57
		c-0.1,0-0.2,0-0.3-0.1s-0.2-0.1-0.3-0.2l-5.1-10L48.5,35c-0.1,0.2-0.2,0.4-0.4,0.6c-0.2,0.2-0.4,0.2-0.7,0.2h-5.5
		c-0.2,0-0.4-0.1-0.5-0.2c-0.1-0.2-0.2-0.3-0.1-0.6l5.5-19c0.1-0.2,0.2-0.4,0.4-0.6c0.2-0.2,0.4-0.2,0.7-0.2h6.3
		c0.1,0,0.2,0,0.4,0.1c0.1,0.1,0.2,0.1,0.2,0.2c0.5,1,1,2.1,1.5,3.1s1,2,1.5,3C58.1,22.3,58.4,22.9,58.8,23.6z"/>
	<path class="st1" d="M68.1,35.8c-0.2,0-0.4-0.1-0.5-0.2c-0.1-0.2-0.2-0.3-0.1-0.6L73,16c0.1-0.2,0.2-0.4,0.4-0.6
		c0.2-0.2,0.4-0.2,0.7-0.2h16.4c0.2,0,0.4,0.1,0.5,0.2c0.1,0.2,0.2,0.3,0.1,0.6L90,19.8c-0.1,0.2-0.2,0.4-0.4,0.6
		c-0.2,0.2-0.4,0.2-0.7,0.2h-9.5l-0.6,2.1h8.1c0.2,0,0.4,0.1,0.5,0.2c0.1,0.2,0.2,0.3,0.1,0.6l-1.1,3.8c-0.1,0.2-0.2,0.4-0.4,0.6
		c-0.2,0.2-0.4,0.2-0.7,0.2h-8.1l-0.6,2.2h10.2c0.2,0,0.4,0.1,0.5,0.2c0.1,0.2,0.1,0.3,0.1,0.6L86.3,35c-0.1,0.2-0.2,0.4-0.4,0.6
		c-0.2,0.2-0.4,0.2-0.7,0.2H68.1z"/>
	<path class="st1" d="M109.8,16c0.1-0.2,0.2-0.4,0.4-0.6c0.2-0.2,0.4-0.2,0.7-0.2h5.8c0.2,0,0.4,0.1,0.5,0.2
		c0.1,0.2,0.2,0.3,0.1,0.6l-3.8,13.3c-0.7,2.5-2.3,4.3-4.7,5.4c-2.2,0.9-5.1,1.4-8.7,1.4c-3.8,0-6.4-0.5-8-1.4
		c-1.7-1-2.2-2.9-1.4-5.6L94.5,16c0.1-0.2,0.2-0.4,0.4-0.6c0.2-0.2,0.4-0.2,0.7-0.2h5.8c0.2,0,0.4,0.1,0.6,0.2
		c0.1,0.2,0.2,0.3,0.1,0.6L99,26.8c-0.3,1.2-0.3,2.1,0.2,2.6s1.4,0.8,2.8,0.8s2.4-0.3,3.2-0.8c0.8-0.5,1.3-1.4,1.7-2.6L109.8,16z"/>
	<path class="st1" d="M124.3,28.5l-1.9,6.5c-0.1,0.2-0.2,0.4-0.4,0.6c-0.2,0.2-0.4,0.2-0.7,0.2H115c-0.2,0-0.4-0.1-0.5-0.2
		c-0.1-0.2-0.2-0.3-0.1-0.6l5.5-19c0.1-0.2,0.2-0.4,0.4-0.6c0.2-0.2,0.4-0.2,0.7-0.2h14.1c2.4,0,4.2,0.5,5.4,1.5
		c1.3,1.1,1.6,2.5,1.1,4.3c-0.6,2-1.6,3.4-3.2,4.3c-0.4,0.2-0.8,0.4-1.3,0.6s-1,0.4-1.5,0.5c0.5,0.3,0.9,0.6,1.3,1
		c0.3,0.3,0.6,0.7,0.8,1l2.1,6.1c0.1,0.3,0,0.6-0.2,0.8c-0.2,0.3-0.5,0.4-0.9,0.4h-7.2c-0.2,0-0.3,0-0.4-0.1
		c-0.1-0.1-0.2-0.2-0.2-0.3l-1.8-6.2v0.1c-0.1-0.1-0.1-0.2-0.2-0.3c-0.1-0.1-0.1-0.2-0.2-0.2c-0.1-0.1-0.7-0.2-1.7-0.2
		C127,28.5,124.3,28.5,124.3,28.5z M126.6,19.9l-1.1,3.9h3.4c1.4,0,2.5-0.1,3.3-0.4s1.3-0.8,1.5-1.6c0.2-0.6,0-1.1-0.4-1.4
		c-0.5-0.3-1.2-0.4-2.2-0.4h-4.5C126.6,20,126.6,19.9,126.6,19.9z"/>
	<path class="st1" d="M164.1,33.5c-2.7,1.7-6.3,2.6-10.6,2.6c-4.4,0-7.4-0.9-9.1-2.6c-1.7-1.7-2.1-4.4-1-8c1-3.6,2.9-6.3,5.7-8
		c2.7-1.8,6.3-2.6,10.6-2.6c4.4,0,7.4,0.9,9.1,2.6c1.7,1.8,2.1,4.4,1,8S166.8,31.7,164.1,33.5z M161.5,22.1
		c-0.7-0.8-1.9-1.1-3.7-1.1s-3.2,0.4-4.4,1.1c-1.1,0.8-1.9,1.9-2.4,3.4c-0.4,1.5-0.3,2.6,0.4,3.4s1.9,1.1,3.7,1.1s3.2-0.4,4.4-1.1
		c1.1-0.8,1.9-1.9,2.4-3.4S162.2,22.8,161.5,22.1z"/>
	<path class="st1" d="M188.5,15.2c3.4,0,5.8,1,7.4,2.9c1.5,1.9,1.9,4.4,1,7.4s-2.6,5.5-5.3,7.4c-2.6,1.9-5.6,2.9-8.9,2.9h-12.4
		c-0.2,0-0.4-0.1-0.6-0.2c-0.1-0.2-0.2-0.3-0.1-0.6l5.5-19c0.1-0.2,0.2-0.4,0.4-0.6c0.2-0.2,0.4-0.2,0.7-0.2
		C176.2,15.2,188.5,15.2,188.5,15.2z M189.1,22.5c-0.5-0.7-1.3-1-2.6-1h-5l-2.3,8.1h4.7c1.4,0,2.5-0.3,3.4-1s1.5-1.7,1.9-3
		C189.6,24.2,189.5,23.2,189.1,22.5z"/>
	<path class="st1" d="M197.3,35.8c-0.2,0-0.4-0.1-0.5-0.2c-0.1-0.2-0.1-0.3-0.1-0.6l5.5-19c0.1-0.2,0.2-0.4,0.4-0.6
		c0.2-0.2,0.4-0.2,0.6-0.2h5.2c0.2,0,0.4,0.1,0.5,0.2c0.1,0.2,0.1,0.3,0.1,0.6l-5.5,19c-0.1,0.2-0.2,0.4-0.4,0.6
		c-0.2,0.2-0.4,0.2-0.6,0.2H197.3z"/>
	<path class="st1" d="M236.8,15.2c0.4,0,0.6,0.1,0.7,0.4c0.1,0.2,0,0.5-0.2,0.8l-15.8,19.3c-0.1,0.1-0.3,0.2-0.4,0.3
		c-0.2,0.1-0.3,0.1-0.5,0.1h-3.7c-0.1,0-0.3,0-0.4-0.1c-0.1-0.1-0.2-0.2-0.2-0.3l-4.6-19.3c-0.1-0.3,0-0.6,0.3-0.8
		c0.2-0.2,0.5-0.3,0.9-0.3h6.4c0.2,0,0.3,0,0.4,0.1c0.1,0.1,0.2,0.2,0.2,0.3l2.2,10.2l7.8-10.2c0.1-0.1,0.2-0.2,0.4-0.3
		s0.4-0.1,0.5-0.1L236.8,15.2L236.8,15.2z"/>
	<path class="st1" d="M234.5,35.8c-0.2,0-0.4-0.1-0.5-0.2c-0.1-0.2-0.2-0.3-0.1-0.6l5.5-19c0.1-0.2,0.2-0.4,0.4-0.6
		c0.2-0.2,0.4-0.2,0.7-0.2h16.4c0.2,0,0.4,0.1,0.5,0.2c0.1,0.2,0.2,0.3,0.1,0.6l-1.1,3.8c-0.1,0.2-0.2,0.4-0.4,0.6
		c-0.2,0.2-0.4,0.2-0.7,0.2h-9.5l-0.6,2.1h8.1c0.2,0,0.4,0.1,0.5,0.2c0.1,0.2,0.2,0.3,0.1,0.6l-1.1,3.8c-0.1,0.2-0.2,0.4-0.4,0.6
		s-0.4,0.2-0.7,0.2h-8.1l-0.6,2.2h10.2c0.2,0,0.4,0.1,0.5,0.2c0.1,0.2,0.1,0.3,0.1,0.6l-1.1,3.8c-0.1,0.2-0.2,0.4-0.4,0.6
		c-0.2,0.2-0.4,0.2-0.7,0.2L234.5,35.8L234.5,35.8z"/>
	<path class="st1" d="M265.3,28.5l-1.9,6.5c-0.1,0.2-0.2,0.4-0.4,0.6c-0.2,0.2-0.4,0.2-0.7,0.2H256c-0.2,0-0.4-0.1-0.5-0.2
		c-0.1-0.2-0.2-0.3-0.1-0.6l5.5-19c0.1-0.2,0.2-0.4,0.4-0.6c0.2-0.2,0.4-0.2,0.7-0.2h14.1c2.4,0,4.2,0.5,5.4,1.5
		c1.3,1.1,1.6,2.5,1.1,4.3c-0.6,2-1.6,3.4-3.2,4.3c-0.4,0.2-0.8,0.4-1.3,0.6s-1,0.4-1.5,0.5c0.5,0.3,0.9,0.6,1.3,1
		c0.3,0.3,0.6,0.7,0.8,1l2.1,6.1c0.1,0.3,0,0.6-0.2,0.8c-0.2,0.3-0.5,0.4-0.9,0.4h-7.2c-0.2,0-0.3,0-0.4-0.1s-0.2-0.2-0.2-0.3
		l-1.8-6.2v0.1c-0.1-0.1-0.1-0.2-0.2-0.3c-0.1-0.1-0.1-0.2-0.2-0.2c-0.1-0.1-0.7-0.2-1.7-0.2C268,28.5,265.3,28.5,265.3,28.5z
		 M267.6,19.9l-1.1,3.9h3.4c1.4,0,2.5-0.1,3.3-0.4s1.3-0.8,1.5-1.6c0.2-0.6,0-1.1-0.4-1.4c-0.5-0.3-1.2-0.4-2.2-0.4h-4.5L267.6,19.9
		L267.6,19.9z"/>
</g>
<g>
	<defs>
		<polygon id="SVGID_1_" points="36.6,35.8 0.3,35.8 9.2,4.9 45.5,4.9 		"/>
	</defs>
	<clipPath id="SVGID_2_">
		<use xlink:href="#SVGID_1_"  style="overflow:visible;"/>
	</clipPath>
	<g class="st2">
		<g>
			<g>
				<g>
					<path class="st3" d="M23.9,38c0-0.2,0.1-0.4,0.1-0.6c0-0.3,0-0.6,0-0.9c0-0.2,0-0.4,0-0.6c0-0.1,0-0.2,0-0.3
						c0-0.2,0.1-0.4,0.1-0.6c0,0,0,0,0-0.1c0-0.1,0-0.1,0-0.2c0-0.1,0-0.3,0-0.4c0,0,0-0.1,0-0.1c0-0.1,0-0.3,0.1-0.4
						c0-0.2,0-0.3,0-0.5c0-0.2,0.1-0.4,0.1-0.6c0-0.1,0.1-0.1,0.1-0.2c0.1-0.3,0.1-0.6,0.1-0.8c0.1-0.4,0.2-0.7,0.2-1.1
						c0-0.3,0.2-0.5,0.2-0.8c0-0.2,0.1-0.3,0.1-0.5c0.1-0.2,0.1-0.5,0.2-0.7c0.1-0.2,0.1-0.5,0.2-0.7c0-0.1,0.1-0.2,0-0.2
						c0-0.1,0-0.2,0.1-0.2c0.1,0,0.2,0,0.3-0.1c0,0.1,0.2,0.1,0.2,0.2c0.1,0.1,0.2,0.2,0.3,0.4c0.1,0.1,0.1,0.2,0.2,0.2
						c0.1,0.1,0.2,0.2,0.2,0.2c0.1,0.1,0.2,0.2,0.3,0.3c0.1,0.2,0.2,0.3,0.4,0.5c0,0,0.1,0,0.1,0c0,0,0,0,0.1-0.1
						c0-0.1,0-0.1,0.1-0.2c0-0.1,0.1-0.1,0.1-0.2c0-0.2,0.2-0.3,0.3-0.5c0,0,0,0,0,0c0.1-0.2,0.2-0.4,0.4-0.5c0-0.1,0.1-0.1,0.2-0.2
						c0.1-0.2,0.2-0.3,0.4-0.5c0.1-0.2,0.3-0.3,0.4-0.5c0.1-0.1,0.2-0.2,0.2-0.3c0.1-0.1,0.2-0.2,0.3-0.3c0.1-0.1,0.1-0.2,0.2-0.2
						c0.1-0.1,0.1-0.1,0-0.2c0,0,0,0-0.1-0.1c-0.1-0.1-0.2-0.1-0.2-0.2c-0.1-0.1-0.2-0.2-0.3-0.3c-0.2-0.1-0.3-0.3-0.4-0.5
						c-0.2-0.2-0.3-0.4-0.5-0.6c-0.1-0.1-0.2-0.3-0.3-0.4c-0.1-0.1-0.2-0.3-0.2-0.4c0,0,0,0,0,0C28,23.1,28,23.1,28,23
						c0,0,0-0.1,0-0.1c-0.1-0.1-0.2-0.2-0.2-0.4c0,0,0,0,0,0c-0.1-0.2-0.1-0.5-0.2-0.7c0-0.1-0.1-0.3-0.2-0.4
						c-0.1-0.1-0.1-0.2-0.1-0.3c0,0,0-0.1,0-0.1c0,0,0-0.1-0.1-0.1c-0.1-0.1,0-0.2,0-0.3c0-0.3,0.2-0.5,0.3-0.8
						c0.1-0.1,0.1-0.3,0.2-0.4c0.1-0.2,0.2-0.5,0.4-0.7c0-0.1,0.1-0.1,0.1-0.2c0.1-0.2,0.2-0.4,0.2-0.6c0.1-0.2,0.2-0.5,0.3-0.7
						c0.1-0.2,0.2-0.4,0.2-0.6c0-0.1,0-0.2,0.1-0.2c0-0.1,0.1-0.2,0.1-0.3c0.1-0.2,0.1-0.4,0.2-0.6c0,0,0,0,0,0
						c0.1-0.1,0.1-0.2,0.2-0.3c0-0.1,0.1-0.1,0.1-0.2c0-0.1,0.1-0.2,0.1-0.3c0,0,0,0,0,0c0.1,0,0.1-0.1,0.1-0.2c0,0,0,0,0-0.1
						c0-0.1,0.1-0.2,0.1-0.2c0-0.1,0.1-0.2,0.1-0.3c0-0.1,0.1-0.2,0.1-0.3c0-0.2,0.1-0.3,0.1-0.5c0-0.1,0.1-0.3,0.1-0.4
						c0-0.1,0-0.1,0-0.2c0,0,0,0,0,0c0,0.2,0,0.3,0,0.5c0,0.1,0,0.3,0,0.4c0,0.2,0,0.4,0,0.6c-0.1,0.1-0.1,0.3-0.1,0.4
						c0,0,0,0.1-0.1,0.1c0,0.1-0.1,0.2-0.1,0.3c0,0,0,0.1,0,0.1c0,0,0,0,0,0c0.2-0.1,0.4-0.2,0.6-0.3c0.1-0.1,0.2-0.1,0.4-0.1
						c0.1,0,0.2,0,0.3,0c0.1,0,0.1,0,0.2,0c0.2,0.1,0.3,0.2,0.5,0.2c0.2,0.1,0.5,0.3,0.7,0.4c0.2,0.1,0.3,0.2,0.5,0.3
						c0.1,0.1,0.3,0.2,0.4,0.2c0.1,0,0.1,0.1,0.2,0.1c0.1,0.1,0.2,0.2,0.3,0.3c0,0,0,0.1,0,0.1c0.1,0.1,0.2,0.2,0.3,0.3
						c0,0.1,0.1,0.2,0.1,0.2c0,0.2,0,0.4,0,0.5c0,0.2,0,0.4,0,0.6c0,0.2,0,0.4-0.1,0.5c-0.1,0.1-0.1,0.2-0.2,0.3
						c-0.1,0.1-0.2,0.2-0.3,0.3c-0.1,0.1-0.1,0.1-0.1,0.2c-0.1,0.1-0.1,0.3-0.2,0.4c-0.2,0.2-0.4,0.4-0.6,0.6
						c-0.1,0.1-0.3,0.3-0.5,0.4c0,0,0,0,0,0c-0.1,0.2-0.2,0.4-0.4,0.5c-0.1,0.1-0.2,0.3-0.1,0.5c0.1,0.1,0.1,0.2,0.1,0.3
						c0,0.1,0.1,0.2,0.1,0.3c0,0,0,0.1,0,0.1c0,0.1,0.1,0.1,0.1,0.2c0.1,0.1,0.1,0.2,0.2,0.4c0.1,0.2,0.2,0.3,0.3,0.5c0,0,0,0,0,0
						c0,0.1,0.1,0.1,0.1,0.2c0,0.1,0.1,0.1,0.1,0.3c0,0.1,0.1,0.2,0.2,0.4c0,0.1,0.1,0.1,0.1,0.2c0.1,0.2,0.2,0.4,0.4,0.7
						c0.1,0.2,0.2,0.3,0.3,0.5c0.1,0.2,0.3,0.4,0.4,0.6c0.1,0.2,0.3,0.3,0.4,0.5c0.1,0.2,0.3,0.3,0.4,0.5c0.1,0.1,0.1,0.2,0.2,0.2
						c0.2,0.2,0.4,0.3,0.6,0.5c0.2,0.2,0.4,0.3,0.6,0.5c0.1,0.1,0.3,0.1,0.3,0.3c0,0.1,0,0.1,0,0.2c0,0.1-0.2,0-0.2,0
						c-0.1-0.2-0.3-0.3-0.4-0.5c-0.1-0.2-0.3-0.3-0.5-0.5c-0.2-0.1-0.3-0.3-0.5-0.4c-0.2-0.1-0.3-0.3-0.5-0.4
						c-0.1-0.1-0.2-0.2-0.3-0.4c-0.1-0.1-0.1-0.2-0.2-0.3c-0.1-0.2-0.3-0.3-0.4-0.5c-0.2-0.2-0.3-0.4-0.5-0.6
						c-0.1-0.1-0.1-0.2-0.2-0.3c-0.1-0.2-0.3-0.5-0.4-0.7c-0.1-0.1-0.2-0.2-0.2-0.3c-0.1-0.2-0.2-0.3-0.3-0.5
						c-0.1-0.1-0.1-0.2-0.2-0.3c0-0.1-0.1-0.2-0.1-0.3c-0.1-0.1-0.1-0.2-0.2-0.3c0,0,0-0.1-0.1-0.1c-0.1-0.1-0.1-0.3-0.2-0.4
						c0-0.1-0.1-0.2-0.1-0.3c-0.1,0.1-0.1,0.1-0.1,0.1c0,0-0.1,0.1-0.1,0.1c-0.1,0.1-0.1,0.2-0.2,0.2c0,0-0.1,0.1-0.1,0.1
						c-0.1,0.1-0.1,0.1-0.2,0.2c-0.1,0.1-0.2,0.1-0.2,0.2c0,0.1-0.2,0.2-0.3,0.3c-0.2,0-0.3,0-0.5-0.1c-0.2-0.1-0.5-0.2-0.7-0.3
						c-0.1,0-0.3-0.1-0.4-0.2c-0.2-0.2-0.3-0.4-0.4-0.7c-0.1-0.1-0.1-0.3-0.1-0.5c0-0.1,0-0.2,0-0.3c0,0,0-0.1,0-0.1
						c0-0.1,0-0.3,0-0.4c0-0.1,0-0.2,0.1-0.3c0.1-0.1,0.2-0.2,0.3-0.3c0.1-0.1,0.2-0.1,0.3-0.1c0,0,0,0,0,0
						c-0.1,0.1-0.1,0.2-0.2,0.2C29.1,20,29,20.1,29,20.2c0,0.2,0,0.3,0,0.5c0,0,0,0.1,0,0.1c0,0.1,0,0.1,0,0.2c0,0,0,0.1,0,0.1
						c0,0,0,0.1,0,0.1c0,0.1,0.1,0.2,0,0.4c0,0.2,0.1,0.4,0.2,0.6c0.1,0.1,0.2,0.2,0.3,0.2c0,0,0.1,0,0.1,0c0.1,0,0.2,0.1,0.3,0.1
						c0.1,0,0.1,0,0.2,0.1c0.1,0.1,0.3,0.1,0.4,0.1c0.1,0,0.1,0,0.2-0.1c0.1,0,0.1-0.1,0.1-0.2c0,0,0,0,0.1-0.1
						c0-0.1,0.1-0.2,0.1-0.3c0,0,0.1-0.1,0.1-0.1c0.1-0.1,0.2-0.3,0.3-0.4c0.1-0.2,0.3-0.3,0.4-0.4c0.1-0.1,0.3-0.2,0.4-0.4
						c0.2-0.2,0.3-0.3,0.5-0.5c0.1-0.1,0.2-0.2,0.3-0.3c0.1-0.1,0.2-0.1,0.2-0.2c0.1-0.1,0.2-0.2,0.3-0.3c0.2-0.2,0.3-0.4,0.4-0.6
						c0.1-0.2,0.3-0.3,0.4-0.5c0.1-0.1,0-0.2,0.1-0.4c0-0.1,0-0.1,0.1-0.2c0-0.1,0-0.1,0-0.2c0-0.1,0-0.2,0-0.3c0-0.1,0-0.3,0-0.4
						c0-0.1,0-0.2,0-0.3c0-0.1,0-0.1-0.1-0.1c-0.2-0.1-0.4-0.2-0.5-0.3c-0.2-0.1-0.3-0.3-0.4-0.4c0,0,0-0.1-0.1-0.1
						c-0.1-0.1-0.3-0.3-0.5-0.4c-0.2-0.1-0.4-0.3-0.6-0.4c-0.1-0.1-0.3-0.1-0.4-0.2c-0.2-0.1-0.4-0.1-0.6,0
						c-0.1,0.1-0.3,0.1-0.4,0.2c0,0-0.1,0-0.1,0c-0.2,0.1-0.3,0.2-0.4,0.3c-0.1,0.2-0.3,0.3-0.3,0.5c0,0,0,0.1,0,0.1
						c-0.1,0-0.1,0.1-0.1,0.2c0,0.1,0,0.1-0.1,0.2c-0.1,0.1-0.2,0.2-0.3,0.3c-0.1,0.1-0.2,0.3-0.3,0.5c0,0.1-0.1,0.1-0.1,0.2
						c-0.1,0.2-0.1,0.3-0.2,0.5c-0.1,0.1-0.1,0.2-0.2,0.3c-0.1,0.2-0.2,0.4-0.3,0.7c-0.1,0.1-0.1,0.3-0.2,0.4
						c-0.1,0.2-0.1,0.3-0.1,0.5c0,0.1-0.1,0.1-0.1,0.2c0,0.1-0.1,0.2-0.1,0.3c-0.1,0.2-0.2,0.3-0.3,0.5c0,0,0,0.1,0,0.1
						c0,0.1,0,0.2,0,0.4c0,0,0,0.1,0,0.1c0,0.4,0.2,0.7,0.4,1.1c0,0.1,0.1,0.2,0.1,0.2c0.2,0.2,0.3,0.4,0.4,0.6
						c0.1,0.1,0.1,0.2,0.1,0.3c0,0.1,0.1,0.2,0.1,0.3c0,0.1,0.1,0.3,0.1,0.4c0.1,0.2,0.2,0.4,0.4,0.6c0.1,0.1,0.2,0.2,0.3,0.3
						c0.1,0.1,0.2,0.2,0.3,0.3c0.1,0.2,0.2,0.3,0.4,0.5c0.1,0.1,0.1,0.2,0.1,0.3c-0.1,0.2-0.2,0.3-0.3,0.5c0,0,0,0,0,0
						c0,0-0.1,0.1-0.1,0.1c-0.1,0.1-0.2,0.3-0.3,0.4c-0.1,0.1-0.2,0.2-0.2,0.2c-0.1,0.1-0.2,0.3-0.3,0.4c-0.1,0.1-0.1,0.2-0.2,0.3
						c-0.1,0.2-0.2,0.4-0.4,0.5c0,0.1-0.1,0.1-0.1,0.2c0,0,0,0,0,0C28.1,29,28,29.1,28,29.2c-0.1,0.1-0.2,0.3-0.3,0.4
						c-0.1,0.1-0.2,0.1-0.2,0.2c0,0.1-0.1,0.1-0.2,0.1c-0.1,0-0.3-0.1-0.4-0.1c-0.1,0-0.3-0.1-0.4-0.1c-0.1,0-0.3-0.1-0.4,0
						c0,0-0.1,0-0.1,0c-0.1,0-0.3-0.1-0.4-0.1c0,0,0,0,0,0c-0.1,0-0.1-0.1-0.2-0.1c0,0.1,0,0.2-0.1,0.2c0,0.1,0,0.3-0.1,0.4
						c-0.1,0.2-0.1,0.3-0.2,0.5c-0.1,0.2-0.1,0.4-0.2,0.6c-0.1,0.3-0.2,0.6-0.2,0.9c0,0.1,0,0.2,0,0.3c0,0.1,0,0.2,0,0.3
						c0,0.1,0,0.2,0,0.3c0,0.2-0.1,0.4-0.1,0.7c0,0,0,0,0,0.1c0,0.1-0.1,0.1-0.1,0.2c0,0.2,0.1,0.3,0,0.5c0,0.1,0,0.2,0,0.4
						c0,0.1,0,0.1,0,0.2c0,0.2-0.1,0.4-0.1,0.6c0,0.2-0.1,0.4-0.1,0.6c0,0.1,0,0.2,0,0.3c0,0.2,0,0.3,0,0.5c0,0.1,0,0.2,0,0.3
						c0,0.3,0,0.6-0.1,0.9c0,0.2-0.1,0.4-0.1,0.6c0,0.1,0.1,0.1,0.1,0.2c0,0.1,0,0.1-0.1,0.2c0,0-0.1,0-0.1,0
						c-0.1,0-0.1-0.1-0.2-0.1c-0.3,0-0.5-0.1-0.7-0.2c-0.2-0.1-0.4-0.3-0.7-0.4c-0.3-0.2-0.7-0.3-1-0.5c-0.2-0.1-0.4-0.1-0.5-0.3
						c-0.1-0.1-0.1-0.2-0.2-0.3c0,0.1,0.1,0.2,0.1,0.3c-0.2-0.1-0.3-0.2-0.3-0.4c0-0.2,0-0.4,0-0.6c0-0.2,0-0.4,0-0.6
						c0-0.2,0-0.4,0.1-0.5c0-0.1,0-0.3,0-0.4c0-0.1,0-0.1,0-0.2c0-0.2,0-0.3,0.1-0.5c0.1-0.4,0.1-0.8,0.1-1.3c0-0.2,0-0.3,0-0.5
						c0-0.2,0-0.4,0-0.5c0-0.1,0-0.3,0-0.4c0.1-0.3,0.1-0.6,0.2-0.9c0.1-0.3,0.1-0.6,0.2-0.9c0-0.1,0.1-0.2,0.1-0.3
						c0.1-0.3,0.1-0.6,0.1-1c0.1-0.4,0.2-0.8,0.3-1.2c0.1-0.4,0.2-0.7,0.2-1.1c0-0.2,0.1-0.4,0.2-0.6c0.1-0.3,0.2-0.6,0.3-0.9
						c0.1-0.2,0.2-0.4,0.2-0.6c0.1-0.3,0.2-0.6,0.3-0.9c0.1-0.4,0.2-0.8,0.4-1.1c0.2-0.4,0.4-0.8,0.5-1.2c0.1-0.3,0.3-0.6,0.4-0.9
						c0.1-0.2,0.1-0.3,0.2-0.5c0.1-0.2,0.2-0.4,0.3-0.6c0.1-0.3,0.2-0.6,0.4-0.8c0.1-0.1,0.1-0.3,0.2-0.4c0.1-0.2,0.1-0.4,0.2-0.6
						c0.1-0.3,0.3-0.6,0.5-0.9c0.1-0.2,0.2-0.3,0.3-0.5c0.1-0.1,0.1-0.3,0.2-0.4c0.1-0.2,0.2-0.4,0.2-0.6c0.1-0.2,0.2-0.4,0.2-0.6
						c0.1-0.3,0.3-0.7,0.4-1c0,0-0.1,0.1-0.1,0.1c-0.2,0.1-0.4,0.2-0.5,0.2c-0.1,0-0.2,0-0.3,0.1c-0.1,0.1-0.2,0.2-0.4,0.2
						c0,0,0,0-0.1,0.1c-0.1,0.1-0.2,0.2-0.3,0.2c-0.1,0-0.2,0.1-0.2,0.2c0,0,0,0,0,0c0,0,0,0,0,0c-0.2,0.1-0.4,0.3-0.6,0.3
						c-0.3,0.1-0.5,0.2-0.8,0.3c-0.2,0-0.5,0.1-0.7,0.2c-0.2,0-0.3,0.1-0.5,0.1c-0.1,0-0.2,0-0.2-0.1c0,0-0.1-0.1-0.1-0.1
						c-0.2,0-0.3,0-0.5,0c-0.1,0-0.2,0.1-0.3,0.1c-0.2,0.1-0.5,0.1-0.7,0.2c0,0-0.1,0.1-0.1,0.1c-0.1,0-0.2,0-0.3,0c0,0,0,0,0,0
						c-0.1,0.1-0.2,0.1-0.3,0c-0.1,0-0.1,0-0.2,0c0,0.1,0,0-0.1,0c-0.1,0-0.1,0-0.1,0.1c0,0.1,0,0.1-0.1,0.1
						c-0.1,0.1-0.3,0.1-0.4,0.2c0,0,0,0,0,0c-0.1,0-0.3,0.1-0.4,0.1c-0.1,0-0.1,0.1-0.2,0.1c0,0-0.1,0.1-0.1,0.1
						c-0.1,0.1-0.2,0.1-0.3,0.2c-0.1,0.1-0.1,0.1-0.2,0.2c0,0,0.1,0,0.1,0c0,0,0.1,0,0.1,0c0.1,0,0.3-0.1,0.4,0c0.1,0,0.3,0,0.4,0
						c0,0,0,0,0.1,0c0.2,0.1,0.3,0,0.5,0c0.1,0,0.2,0,0.3,0c0.1,0,0.2-0.1,0.3-0.1c0.1-0.1,0.2-0.2,0.3-0.3c0.1,0,0.1-0.1,0.2-0.1
						c0.1,0,0.1,0,0.2,0.1c0,0,0,0.1,0,0.1c0,0-0.1,0.1-0.1,0.1c-0.1,0-0.1,0.1-0.2,0.1c-0.1,0.1-0.2,0.2-0.3,0.3
						c-0.1,0.1-0.2,0.2-0.2,0.3c0,0,0,0-0.1,0.1c-0.1,0-0.1,0-0.2,0.1c-0.1,0-0.1,0.1-0.2,0c-0.1-0.1-0.2-0.1-0.3,0
						c-0.1,0.1-0.2,0.1-0.3,0c-0.1,0-0.2-0.1-0.3-0.1c-0.1,0-0.3,0-0.4,0c-0.3-0.1-0.5,0-0.8,0.1c0.2,0.2,0.3,0.5,0.3,0.7
						c0,0-0.1,0-0.1,0c0,0-0.1-0.1-0.1-0.1c-0.1-0.2-0.1-0.3-0.2-0.5c-0.1,0.1-0.2,0.1-0.3,0.2c-0.1,0.1-0.2,0.2-0.1,0.3
						c0,0.1,0.1,0.1,0.1,0.2c0.1,0.1,0.1,0.3,0.2,0.4c0.1,0.1,0.2,0.3,0.3,0.4c0.1,0.1,0.2,0.1,0.2,0c0.1-0.1,0.1-0.2,0.1-0.3
						c0-0.1,0.1-0.1,0.1-0.1c0.1,0,0.2,0.3,0.2,0.4c-0.1,0.1-0.2,0.2-0.3,0.3c-0.1,0-0.3,0-0.3,0c-0.1-0.1-0.2-0.2-0.3-0.3
						c-0.1-0.2-0.2-0.4-0.3-0.6c0,0,0,0,0,0c0-0.1-0.1-0.2-0.1-0.3c0,0,0,0,0,0c-0.1,0-0.1,0.1-0.2,0.1c-0.1,0.1-0.2,0.1-0.3,0.1
						c-0.1,0-0.1,0-0.2,0c0,0,0-0.1,0-0.1c0,0,0,0,0,0c-0.3,0.2-0.6,0.3-1,0.3c-0.1,0-0.1,0-0.2,0c-0.1-0.1-0.3-0.1-0.4-0.2
						c0,0-0.1-0.1-0.1-0.1c0,0,0.1-0.1,0.1-0.1c0.2,0,0.3,0,0.5,0c0.2,0,0.3,0,0.5,0c0.2,0,0.4-0.1,0.5-0.2c0.2-0.1,0.3-0.2,0.4-0.3
						c0.1-0.1,0.2-0.1,0.3-0.1c0.2-0.1,0.3-0.3,0.5-0.4c0.1-0.1,0.2-0.1,0.3-0.2c0.2-0.1,0.5-0.3,0.7-0.4c0,0,0.1-0.1,0.1-0.1
						c0.2,0,0.3-0.1,0.5-0.3c-0.1,0-0.1,0-0.1,0c-0.1,0-0.2,0.1-0.4,0.1c-0.1,0-0.2,0-0.4,0.1c-0.1,0-0.3,0-0.4,0.1
						c-0.1,0-0.3,0.1-0.4,0.1c-0.1,0-0.2,0-0.3,0.1c-0.2,0-0.4,0.1-0.6,0.1c-0.2,0-0.3,0.1-0.5,0.2c-0.2,0-0.3,0.1-0.5,0.1
						c-0.1,0-0.2,0.1-0.2,0.1c-0.3,0-0.4,0.2-0.7,0.2c-0.1,0.1-0.3,0.1-0.4,0.1c-0.2,0-0.5,0.1-0.7,0.2c0.1,0.3,0.1,0.6,0.1,0.8
						c0,0,0,0,0,0.1c0,0.1,0.1,0.3,0.1,0.4c0,0.1,0.1,0.2,0.1,0.2c0.1,0.1,0.2,0.2,0.4,0.3c0.1,0.1,0.2,0.2,0.3,0.3
						c0.1,0.1,0.2,0.2,0.3,0.3c0.1,0.1,0.1,0.1,0.2,0.2c0.1,0.1,0.2,0.3,0.1,0.5c0,0,0,0,0,0c0,0.3,0,0.6-0.1,0.8
						c-0.1,0.3-0.2,0.5-0.4,0.8c0,0-0.1,0.1-0.1,0.1c0-0.2,0.1-0.4,0.2-0.5c0.1-0.2,0.2-0.3,0.2-0.5c0-0.1,0-0.1,0.1-0.2
						c0-0.1,0-0.2,0-0.3c0-0.1,0-0.2,0-0.3c0-0.2-0.1-0.4-0.2-0.5c0,0-0.1,0-0.1,0c-0.1,0-0.2,0-0.2,0c-0.3,0-0.5,0-0.8,0
						c-0.2,0-0.4,0-0.6,0.1c0,0,0,0-0.1,0c-0.1,0-0.1,0.1-0.2,0.1c-0.2,0-0.4,0-0.6,0c-0.1,0-0.2,0-0.3-0.1c0,0-0.1-0.1-0.1-0.1
						c0,0-0.1,0-0.1,0c0-0.1-0.1-0.2-0.1-0.4c0-0.2,0-0.3,0-0.5c-0.3,0.2-0.4,0.5-0.6,0.8c0,0.1-0.1,0.1-0.1,0.1c-0.2,0-0.3,0-0.5,0
						c-0.2,0-0.3-0.1-0.5,0c0,0-0.1,0-0.1,0c-0.1,0-0.2-0.1-0.3-0.1c-0.1,0-0.3,0-0.4,0c-0.1,0-0.3,0-0.4-0.1
						c-0.1-0.1-0.1-0.1-0.2-0.2c0-0.1,0-0.1-0.1-0.2c-0.1,0-0.2-0.1-0.2-0.2c0-0.1,0-0.2,0-0.3c0-0.1,0-0.2,0-0.3
						c0-0.1,0-0.3,0.1-0.4c0-0.1,0.1-0.2,0.1-0.4c0-0.2,0-0.3,0.1-0.5c0-0.1,0.1-0.3,0.1-0.4c0-0.2,0-0.3,0.1-0.4
						c0.1-0.2,0.2-0.5,0.2-0.7c0-0.1,0-0.2,0.1-0.3c0.2-0.3,0.3-0.7,0.4-1c0.1-0.2,0.1-0.4,0.2-0.6c0.1-0.2,0.2-0.4,0.3-0.6
						c0.1-0.2,0.2-0.3,0.3-0.5c0.1-0.3,0.2-0.5,0.4-0.8c0-0.1,0.1-0.2,0.1-0.3c0.1-0.2,0.3-0.3,0.4-0.5c0.1-0.1,0.1-0.2,0.2-0.2
						c0.1-0.1,0.1-0.2,0.2-0.3c0.1-0.2,0.2-0.4,0.3-0.5c0.1-0.1,0.2-0.1,0.2-0.2c0.2-0.2,0.3-0.4,0.5-0.7c0.1-0.1,0.2-0.3,0.3-0.4
						c0.1-0.1,0.2-0.2,0.3-0.4C13,8,13.1,7.9,13.2,7.8c0.1-0.1,0.2-0.3,0.3-0.4c0.2-0.2,0.4-0.4,0.6-0.7c0.1-0.1,0.2-0.2,0.3-0.3
						c0.2-0.2,0.4-0.4,0.6-0.5c0.2-0.1,0.4-0.3,0.6-0.4c0.2-0.1,0.4-0.4,0.7-0.4c0,0,0,0,0.1,0c0,0,0,0,0.1-0.1
						c0.1-0.1,0.3-0.2,0.4-0.3c0.1-0.1,0.3-0.2,0.4-0.3c0.1-0.1,0.3-0.1,0.4-0.2c0.1-0.1,0.2-0.2,0.3-0.1c0,0,0,0,0,0
						c0.1,0,0.1-0.1,0.2-0.1c0.3-0.1,0.5-0.4,0.8-0.5c0.2-0.1,0.3-0.1,0.5-0.2c0.1,0,0.1-0.1,0.2-0.1c0.1,0,0.3-0.1,0.4-0.1
						c0.1,0,0.3-0.1,0.4-0.1c0.2,0,0.3,0,0.5-0.1c0.2,0,0.3-0.1,0.5-0.2c0.2-0.1,0.3-0.1,0.5-0.2c0.3-0.1,0.6-0.3,0.9-0.3
						c0.2,0,0.3-0.1,0.5-0.1c0.1,0,0.3-0.1,0.4-0.1c0.1,0,0.3,0,0.4-0.1C24.5,2,24.8,1.9,25,1.8c0.2-0.1,0.3-0.2,0.5-0.1
						c0,0,0,0,0,0c0.1,0,0.2-0.1,0.4-0.1c0.2,0,0.4,0,0.6,0c0.2,0,0.4,0,0.6,0c0.1,0,0.2,0,0.4,0c0.2,0,0.3,0,0.5,0
						c0.1,0,0.2,0,0.3,0c0.1,0,0.2,0,0.3,0c0.1,0,0.3-0.1,0.4,0c0,0,0,0,0,0c0,0,0.1,0,0.1,0c0.1,0,0.2,0,0.3,0c0.2,0,0.3,0,0.5,0
						c0.1,0,0.2,0.1,0.2,0.1c0.1,0,0.3,0,0.4,0c0.2,0,0.4,0.1,0.5,0.1c0.2,0,0.4,0,0.5,0.1c0,0,0.1,0,0.1,0.1
						C31.8,2,32,2.1,32.2,2.2c0.2,0.1,0.4,0.2,0.7,0.2c0.2,0,0.3,0.1,0.5,0.1c0.1,0,0.2,0.1,0.3,0.1c0.1,0,0.2,0,0.3,0
						c0.1,0.1,0.2,0.1,0.3,0.1c0,0,0,0,0.1,0c0.2,0.1,0.3,0.1,0.5,0.2c0,0,0.1,0,0.1,0c0.1,0,0.2,0,0.3,0.1c0,0,0.1,0,0.1,0.1
						c0,0,0.1,0,0.1,0c0.1,0.1,0.3,0.2,0.4,0.2c0,0,0.1,0.1,0.1,0.1c0.2,0,0.3,0.2,0.5,0.2c0,0,0,0,0,0c0,0.1,0.1,0.1,0.2,0.1
						c0.1,0,0.2,0.1,0.3,0.1c0.2,0.1,0.3,0.2,0.5,0.3c0.2,0.1,0.3,0.2,0.5,0.3c0.1,0,0.1,0.1,0.2,0.1c0.2,0.1,0.3,0.2,0.5,0.3
						c0.2,0.2,0.4,0.4,0.6,0.5c0.1,0.1,0.2,0.1,0.2,0.2c0.1,0.1,0.2,0.2,0.4,0.3c0.2,0.2,0.4,0.4,0.6,0.6c0,0,0.1,0.1,0.2,0.1
						c0.1,0.1,0.2,0.1,0.3,0.1c0,0,0.1,0,0.1,0c0.1,0,0.3-0.1,0.4-0.1c0.2-0.1,0.3-0.1,0.5-0.2c0.1,0,0.1-0.1,0.2-0.1
						c0.1,0,0.1,0,0.2-0.1c0,0,0,0,0.1-0.1c0.1-0.1,0.2-0.1,0.3-0.1c0.1-0.1,0.2-0.1,0.3-0.2c0.1-0.1,0.3-0.1,0.4-0.2
						c0.2-0.1,0.3-0.2,0.5-0.2c0.2-0.1,0.3-0.1,0.4-0.2C44.5,5.1,44.7,5,45,4.8c0.2-0.1,0.3-0.2,0.5-0.2c0.2-0.1,0.3-0.2,0.5-0.3
						c0,0,0,0,0.1,0C46.2,4.2,46.4,4,46.6,4c0.1,0,0.1,0,0.2-0.1c0.2-0.1,0.3-0.2,0.5-0.3c0.1,0,0.1-0.1,0.2-0.1
						c0.2-0.1,0.5-0.3,0.7-0.4c0.1-0.1,0.2-0.1,0.3-0.2c0.1-0.1,0.3-0.1,0.4-0.2c0.2-0.1,0.5-0.2,0.7-0.4C49.8,2.2,50,2.1,50.2,2
						c0.1,0,0.2,0,0.3,0c0.2,0,0.3,0,0.4,0.2c0,0,0.1,0.1,0.1,0.1c0.1,0.1,0.2,0.1,0.3,0.2c0.1,0.1,0.2,0.2,0.3,0.2
						c0.1,0.1,0.2,0.2,0.3,0.3c0.1,0.1,0.2,0.2,0.3,0.3c0.1,0.1,0.3,0.3,0.4,0.4c0.1,0.1,0.2,0.2,0.3,0.3c0.2,0.2,0.4,0.3,0.6,0.5
						c0.2,0.2,0.3,0.3,0.4,0.5c0.1,0.2,0.3,0.3,0.4,0.4c0.1,0.1,0.2,0.2,0.3,0.3C54.6,5.9,54.7,6,54.8,6c0.1,0.1,0.1,0.2,0.2,0.3
						c0,0,0,0.1,0.1,0.1c0.1,0.1,0.1,0.2,0.2,0.3c0,0.1,0.1,0.1,0.1,0.2c0,0,0,0.1,0.1,0.2c0.1,0.2,0.2,0.4,0.4,0.6
						c0.1,0.1,0.1,0.2,0.2,0.3c0,0,0,0,0,0c0.1,0.1,0.1,0.1,0.1,0.2c0.1,0,0.2,0.1,0.2,0.2c0,0,0,0.1,0.1,0.1c0,0,0.1,0.1,0.1,0.1
						c0.1,0.2,0.1,0.4,0.3,0.6c0.1,0.1,0.1,0.3,0.2,0.4c0,0,0,0.1,0,0.1c0,0,0,0.1,0,0.1c0.1,0.1,0.1,0.2,0.2,0.4c0,0,0,0,0,0.1
						c0.1,0.1,0.1,0.3,0.2,0.4c0.1,0.1,0.1,0.3,0.1,0.4c0,0,0,0.1,0,0.1c0,0.1,0.1,0.2,0,0.3c0,0,0,0,0,0c0,0.2,0.1,0.3,0.1,0.5
						c0,0.1,0,0.1,0,0.2c0,0,0,0,0,0.1c0.1,0.1,0.1,0.3,0,0.4c0,0,0,0,0,0c0.1,0.1,0,0.1-0.1,0.1c-0.1,0-0.1,0.1-0.2,0.1
						c0,0,0,0,0,0c0.1,0,0.1-0.1,0.2-0.1c0,0.1,0,0.1,0,0.2c0,0.1,0,0.2-0.1,0.3c0,0.1-0.1,0.1-0.2,0.2c-0.1,0.1-0.1,0.1-0.1,0.3
						c0,0,0,0.1,0,0.1c0,0.1-0.1,0.1-0.1,0.2c0,0.1-0.1,0.2-0.1,0.2c0,0,0,0.1,0,0.1c0,0,0.1,0,0.1,0c0.1,0,0.2,0,0.2,0
						c0.1,0,0.1,0.1,0.2,0.1c0.1,0.1,0.3,0.1,0.4,0.2c0,0,0.1,0,0.1,0c0.1,0,0.1,0,0.1,0.1c0,0.1,0.1,0.1,0.1,0.2c0,0.1,0,0.2,0,0.3
						c0,0,0,0.1,0,0.1c0,0.1,0,0.2,0,0.3c0,0.1,0,0.2,0,0.2c0,0.1,0,0.2,0,0.3c0,0.1,0,0.1,0,0.2c0,0.1,0,0.2,0,0.4
						c0,0.1-0.1,0.3-0.1,0.4c0,0.2,0,0.3-0.1,0.5c0,0.1-0.1,0.3-0.1,0.4c0,0.1,0,0.2-0.1,0.3c0,0.1,0,0.1,0,0.2c0,0,0,0.1,0,0.1
						c0,0.1,0,0.1-0.1,0.2c0,0,0,0.1,0,0.1c0,0.1,0,0.2-0.1,0.3c0,0.1-0.1,0.3-0.1,0.4c0,0.3-0.2,0.5-0.2,0.7c0,0.2-0.1,0.4-0.2,0.5
						c0,0,0,0.1,0,0.1c0,0.1-0.1,0.2-0.2,0.4c-0.1,0.2-0.2,0.3-0.3,0.5c0,0-0.1,0.1-0.1,0.1c-0.1,0.1-0.1,0.3-0.2,0.4
						c0,0,0,0.1-0.1,0.1c-0.1,0.1-0.2,0.2-0.3,0.3c-0.1,0.2-0.2,0.3-0.3,0.5c-0.1,0.1-0.3,0.2-0.3,0.4c0,0,0,0.1,0,0.1
						c0,0,0,0.1-0.1,0.1c0,0-0.1,0-0.2,0.1c-0.1,0-0.2,0.1-0.3,0.1c-0.1,0-0.3,0-0.4,0c-0.1,0-0.2,0.1-0.3,0.1
						c-0.1,0-0.1,0.1-0.2,0.1c0,0.1,0.1,0.2,0.2,0.3c0,0,0,0,0,0c0.1,0,0.1,0.1,0.1,0.1c-0.1,0.2-0.2,0.3-0.2,0.5
						c-0.1,0.2-0.2,0.3-0.3,0.4c-0.1,0.1-0.1,0.2-0.2,0.2c0,0,0,0,0,0c-0.1,0.1-0.2,0.3-0.4,0.4c-0.1,0.1-0.3,0.3-0.4,0.4
						c-0.1,0.1-0.3,0.2-0.4,0.3c-0.1,0.1-0.3,0.2-0.4,0.2c-0.1,0.1-0.3,0.2-0.4,0.3c-0.1,0.1-0.2,0.3-0.4,0.3
						c-0.1,0.1-0.2,0.2-0.3,0.3c-0.1,0.1-0.2,0.1-0.3,0.2c-0.2,0.1-0.4,0.2-0.6,0.4c-0.1,0.1-0.2,0.1-0.3,0c-0.1-0.1-0.2-0.2,0-0.2
						c0.1,0,0.1-0.1,0.2-0.1c0.1-0.1,0.2-0.1,0.3-0.2c0.2-0.1,0.4-0.2,0.6-0.3c0,0,0.1-0.1,0.2-0.1c0.1-0.1,0.2-0.1,0.3-0.2
						c0.2-0.1,0.4-0.3,0.6-0.5c0.2-0.1,0.3-0.3,0.5-0.4c0.2-0.2,0.4-0.4,0.7-0.6c0.1-0.1,0.2-0.2,0.3-0.3c0.1-0.1,0.2-0.3,0.4-0.5
						c0.1-0.2,0.3-0.4,0.4-0.6c0,0,0,0,0-0.1c0-0.1-0.1-0.1-0.1-0.2c0-0.1-0.1-0.2-0.1-0.3c0-0.1,0-0.2-0.1-0.3
						c0-0.1-0.1-0.3-0.2-0.4c0-0.1-0.1-0.3-0.1-0.4c-0.1-0.2,0-0.2,0.2-0.2c0.1,0,0.2,0,0.3,0c0.1,0,0.1,0,0.2,0
						c0,0,0.1,0.1,0.2,0.1c0.1,0,0.3,0,0.4,0.1c0.2,0.1,0.4,0.1,0.6,0.2c0,0,0.1,0,0.1,0c0.1-0.1,0.2-0.2,0.2-0.3
						c0.1-0.2,0.2-0.4,0.4-0.5c0.1-0.1,0.2-0.3,0.3-0.5c0.2-0.3,0.3-0.5,0.4-0.8c0.1-0.1,0.1-0.2,0.2-0.3c0-0.1,0.1-0.1,0.1-0.2
						c0.1-0.2,0.1-0.4,0.2-0.6c0-0.1,0.1-0.3,0.1-0.4c0.1-0.2,0.2-0.4,0.2-0.7c0-0.2,0.1-0.4,0.1-0.6c0-0.2,0.1-0.4,0.1-0.6
						c0-0.1,0.1-0.1,0-0.2c0,0,0-0.1,0-0.1c0-0.2,0-0.4,0.1-0.6c0-0.2,0-0.3,0-0.5c0-0.1,0-0.3,0.1-0.4c0-0.1,0-0.2,0-0.4
						c0-0.1,0-0.2,0-0.4c0,0,0-0.1,0-0.1c0-0.1,0.1-0.1,0.1-0.2c0,0,0-0.1-0.1-0.1c-0.1,0-0.1,0-0.2,0c-0.3,0-0.5-0.1-0.8-0.2
						c-0.4-0.1-0.8-0.3-1.2-0.4c-0.2-0.1-0.4-0.1-0.6-0.1c-0.1,0-0.2-0.1-0.1-0.2c0.1,0,0.3,0,0.3-0.1c0,0,0,0,0,0
						c0.1-0.1,0.1-0.1,0.2-0.1c0.1-0.1,0.3-0.1,0.4-0.2c0.1,0,0.3,0,0.4-0.1c0.2-0.2,0.6-0.3,0.9-0.4c0.1-0.1,0.2-0.1,0.4-0.1
						c0,0-0.1,0-0.1-0.1c0.1,0,0.2,0,0.3,0c0-0.1-0.1-0.1-0.1-0.1c0,0,0-0.1,0-0.2c0-0.2-0.2-0.3-0.2-0.5c0-0.1,0-0.3-0.1-0.4
						c0,0,0,0,0-0.1c0-0.1-0.1-0.2-0.1-0.3c-0.1-0.2-0.1-0.4-0.2-0.7c0,0,0,0,0-0.1c0,0-0.1-0.1-0.1-0.1c0-0.1-0.1-0.2-0.2-0.4
						c-0.1-0.2-0.2-0.4-0.4-0.6C56.1,9.3,56,9.2,55.9,9c-0.1-0.2-0.1-0.3-0.2-0.5c-0.1-0.2-0.2-0.3-0.3-0.5c0,0,0,0,0,0
						c-0.1-0.1-0.1-0.1-0.1-0.2c0-0.1-0.1-0.2-0.2-0.3c-0.1-0.2-0.2-0.3-0.3-0.5c0,0-0.1-0.1-0.1-0.1c-0.1-0.1-0.1-0.3-0.2-0.4
						c0,0,0,0,0,0c0-0.1-0.1-0.2-0.1-0.2C54.1,6,54,5.9,53.9,5.7c-0.1-0.1-0.2-0.3-0.3-0.4c-0.1-0.1-0.2-0.2-0.3-0.4
						c-0.1-0.1-0.1-0.2-0.2-0.3c-0.1-0.1-0.2-0.2-0.3-0.2c-0.1-0.1-0.3-0.2-0.4-0.3c-0.1-0.1-0.2-0.3-0.4-0.4
						c-0.1-0.1-0.2-0.2-0.3-0.3c-0.1-0.1-0.3-0.3-0.4-0.4c-0.2-0.2-0.4-0.4-0.5-0.6c-0.1-0.1-0.1-0.2-0.2-0.3c0,0,0,0,0,0.1
						c0,0-0.1,0-0.1,0.1c-0.1,0.1-0.2,0.1-0.3,0.2c-0.1,0.1-0.3,0.2-0.4,0.2c0,0,0,0-0.1,0c0,0,0,0-0.1,0c-0.1,0.1-0.3,0.1-0.4,0.2
						C49,3,48.8,3.1,48.5,3.3c-0.1,0-0.2,0.1-0.3,0.1c0,0,0,0-0.1,0c-0.2,0.1-0.3,0.2-0.5,0.3c-0.1,0-0.2,0-0.3,0.1
						c-0.3,0.1-0.5,0.3-0.7,0.4c-0.2,0.1-0.3,0.2-0.5,0.3c-0.1,0.1-0.2,0.1-0.2,0.2c-0.1,0.1-0.2,0.1-0.3,0.2
						C45.4,5,45.2,5,45.1,5.1c-0.1,0.1-0.2,0.1-0.3,0.1c-0.2,0.1-0.4,0.2-0.5,0.3c-0.1,0-0.1,0.1-0.2,0.1c-0.1,0.1-0.2,0.2-0.4,0.3
						c-0.2,0.1-0.3,0.2-0.5,0.3c-0.4,0.2-0.7,0.4-1.1,0.6c0,0,0,0-0.1,0c-0.1,0-0.1,0.1-0.2,0.1C41.7,7,41.6,7,41.4,7.1
						c-0.1,0-0.2,0.1-0.3,0.1c-0.1,0-0.2,0-0.3,0.1c-0.1,0-0.2,0-0.2-0.1c0-0.1-0.1-0.1-0.2-0.2c-0.1,0-0.1-0.1-0.2-0.1
						c-0.1-0.1-0.1-0.2-0.2-0.2c-0.1,0-0.1,0-0.2-0.1c-0.1-0.1-0.3-0.2-0.4-0.3c-0.1-0.1-0.2-0.2-0.3-0.2c-0.1-0.1-0.2-0.2-0.4-0.3
						c-0.1-0.1-0.3-0.2-0.4-0.3c-0.1-0.1-0.2-0.1-0.4-0.2C38,5.2,38,5.1,37.9,5c-0.2-0.1-0.3-0.2-0.4-0.3c-0.1-0.1-0.2-0.1-0.3-0.2
						c-0.1-0.1-0.2-0.1-0.3-0.2c-0.2-0.1-0.3-0.2-0.5-0.3c0,0,0,0,0,0C36.2,4,36.1,4,35.9,3.9c-0.1,0-0.3-0.1-0.4-0.2
						c-0.1-0.1-0.3-0.2-0.4-0.2c-0.1,0-0.2-0.1-0.3-0.1c-0.1-0.1-0.2-0.1-0.4-0.1c-0.1,0-0.2,0-0.2-0.1C34,3.1,33.8,3.1,33.6,3
						c0,0,0,0,0,0c-0.1,0-0.1,0-0.2-0.1c0,0-0.1,0-0.1-0.1c-0.2,0-0.3-0.1-0.5-0.1c-0.3-0.1-0.6-0.2-0.8-0.2
						c-0.2-0.1-0.3-0.1-0.5-0.2c-0.1,0-0.3-0.1-0.4-0.1c-0.2-0.1-0.3-0.1-0.5-0.1c-0.3,0-0.5-0.1-0.8-0.1c-0.1,0-0.1,0-0.2,0
						c-0.2,0-0.4,0-0.5,0c-0.2,0-0.4,0-0.6,0c-0.1,0-0.1,0-0.2,0c-0.1,0-0.1,0-0.2,0c-0.1,0-0.3,0-0.4,0c-0.1,0-0.2,0-0.3,0
						c-0.2,0-0.4,0-0.6,0c-0.1,0-0.2,0-0.4,0c-0.1,0-0.1,0-0.2,0C26,2,25.8,2,25.6,2c-0.2,0-0.4,0.1-0.6,0.1c-0.2,0-0.3,0-0.5,0.1
						c-0.1,0-0.2,0-0.3,0.1c-0.3,0-0.7,0.1-1,0.1c-0.5,0.1-1.1,0.2-1.6,0.5c-0.3,0.1-0.6,0.2-0.8,0.4c-0.2,0.1-0.3,0.2-0.4,0.2
						c-0.2,0.1-0.3,0.2-0.5,0.3c0,0,0,0,0,0c-0.1,0.1-0.3,0-0.4,0.1c-0.3,0.2-0.6,0.3-0.9,0.5c-0.1,0.1-0.2,0.1-0.3,0.2
						c-0.1,0-0.2,0.1-0.3,0.1c-0.1,0-0.2,0.1-0.3,0.2c-0.1,0-0.2,0.2-0.4,0.1c0,0,0,0,0,0C17.2,5,17,5.1,16.9,5.1
						c-0.1,0-0.2,0.1-0.3,0.2c0,0-0.1,0-0.1,0.1c0,0-0.1,0.1-0.1,0.1c-0.1,0.1-0.2,0.1-0.3,0.2c-0.3,0.2-0.5,0.4-0.8,0.6
						c-0.1,0-0.1,0.1-0.2,0.1c-0.1,0.1-0.2,0.2-0.3,0.3c-0.2,0.1-0.4,0.2-0.5,0.3c-0.1,0.1-0.2,0.2-0.3,0.3
						c-0.1,0.1-0.2,0.3-0.4,0.4c-0.1,0.1-0.1,0.2-0.2,0.3c-0.1,0.1-0.3,0.2-0.3,0.4c-0.1,0.2-0.3,0.3-0.4,0.5
						c-0.1,0.2-0.3,0.4-0.5,0.6c-0.1,0.1-0.2,0.3-0.3,0.4c-0.1,0.2-0.3,0.3-0.4,0.5c-0.1,0.2-0.2,0.4-0.4,0.5c0,0-0.1,0.1-0.1,0.1
						c-0.1,0.1-0.2,0.3-0.3,0.4c-0.1,0.1-0.2,0.2-0.2,0.3c-0.1,0.1-0.2,0.3-0.2,0.5c-0.1,0.2-0.2,0.3-0.2,0.5
						c-0.1,0.2-0.3,0.4-0.4,0.7c-0.1,0.2-0.2,0.4-0.3,0.6c-0.1,0.3-0.2,0.6-0.3,0.9c-0.1,0.3-0.2,0.5-0.2,0.8c0,0.2-0.1,0.4-0.1,0.6
						c0,0.2-0.1,0.4-0.1,0.6c0,0.1,0,0.1,0,0.2c0,0.1-0.1,0.2-0.1,0.3c0,0.2,0,0.4-0.1,0.6c0,0.1-0.1,0.3-0.1,0.4
						c0,0.1,0,0.2-0.1,0.3c0.2,0,0.3,0,0.5-0.1c0.2,0,0.3-0.1,0.5-0.1c0.1,0,0.2-0.1,0.3-0.1c0.1,0,0.2-0.1,0.3-0.1
						c0.2,0,0.3-0.1,0.3-0.2c0-0.1,0-0.3,0.1-0.4c0-0.2,0.1-0.3,0.1-0.5c0-0.2,0.1-0.4,0.1-0.6c0,0,0-0.1,0-0.1
						c0-0.1,0.1-0.2,0.1-0.2c0-0.1,0-0.2,0.1-0.3c0.1-0.3,0.2-0.6,0.3-0.9c0.1-0.3,0.2-0.6,0.4-0.8c0-0.1,0.1-0.2,0.1-0.3
						c0.1-0.2,0.1-0.4,0.2-0.6c0.1-0.2,0.1-0.4,0.2-0.6c0.1-0.3,0.1-0.6,0.2-0.9c0.1-0.2,0.2-0.4,0.2-0.7c0,0,0.1,0,0.1-0.1
						c0,0,0.1,0.1,0,0.1c0,0.1-0.1,0.3-0.1,0.4c0,0.2-0.1,0.3-0.1,0.5c0,0.2,0,0.3-0.1,0.5c-0.1,0.3-0.1,0.5-0.2,0.8
						c-0.1,0.3-0.2,0.6-0.2,0.9c0,0,0,0,0,0c0,0.1-0.1,0.2-0.1,0.3c0,0.2,0,0.3,0,0.5c0,0.1,0,0.2,0,0.4c0,0.2,0,0.3,0,0.5
						c0,0.1-0.1,0.2-0.1,0.3c0,0.1,0,0.3,0,0.4c0,0.2,0,0.5,0,0.7c0,0.1,0,0.3,0,0.4c0,0.1,0,0.2,0,0.2c0.2-0.2,0.4-0.3,0.5-0.5
						c0.1-0.1,0.3-0.2,0.5-0.3c0.1,0,0.2-0.1,0.3-0.2c0.1,0,0.1-0.1,0.2-0.2c0.1,0,0.2,0,0.3-0.1c0.1,0,0.2,0,0.3,0
						c0.1,0,0.3,0,0.4-0.1c0.1,0,0.1,0,0.2,0c0.2-0.1,0.4-0.2,0.7-0.3c0.1,0,0.2-0.1,0.3-0.1c0.1,0,0.2-0.1,0.3-0.1
						c0.2-0.1,0.4-0.1,0.6-0.2c0.3-0.1,0.6-0.1,0.9-0.2c0.1,0,0.1,0,0.2-0.1c0.2,0,0.4-0.1,0.6-0.1c0.2,0,0.4-0.1,0.6-0.1
						c0.1,0,0.2,0,0.3,0c0.2,0,0.4-0.1,0.6-0.1c0.2,0,0.3,0,0.5-0.1c0.1,0,0.1,0,0.2-0.1c0.2-0.1,0.3-0.1,0.5-0.2
						c0.1,0,0.2-0.1,0.4,0c0,0,0,0,0.1,0c0.1,0,0.2,0,0.2,0c0.1,0,0.1,0,0.2,0c0.2,0,0.3,0,0.5-0.1c0.1,0,0.3,0,0.4,0
						c0.2,0,0.3,0,0.4-0.1c0.1,0,0.3,0,0.4-0.1c0.1,0,0.3,0,0.4-0.1c0.1-0.1,0.3-0.2,0.4-0.3c0.2-0.1,0.4-0.2,0.5-0.3
						c0.2-0.2,0.4-0.3,0.6-0.5c0.2-0.2,0.4-0.3,0.6-0.5c0,0,0,0,0,0c0.1-0.1,0.2-0.2,0.4-0.3c0.1-0.1,0.1-0.1,0.2-0.2
						c0.1-0.1,0.2-0.3,0.2-0.4c0.1-0.1,0.1-0.2,0.2-0.2c0.1-0.1,0.1-0.2,0.2-0.3c0.1-0.1,0.2-0.3,0.3-0.4c0.1-0.2,0.3-0.4,0.4-0.7
						c0.1-0.1,0.2-0.1,0.2-0.3c0-0.1,0.1-0.2,0.2-0.3c0-0.1,0.1-0.1,0.2-0.2c0.1-0.1,0.2-0.1,0.2-0.3c0,0,0.1-0.1,0.1-0.1
						c0,0,0.1,0,0.1,0c0,0,0.1-0.1,0.1-0.1c0,0,0,0.1,0,0.1c0,0,0,0,0,0.1c0,0.2,0,0.3,0,0.5c0,0.3,0,0.5-0.1,0.8
						c-0.1,0.4-0.2,0.8-0.4,1.2c-0.1,0.3-0.3,0.5-0.4,0.8c0,0.1,0,0.2-0.1,0.3c-0.1,0.2-0.2,0.4-0.3,0.7c-0.1,0.2-0.1,0.4-0.2,0.6
						c-0.1,0.2-0.1,0.4-0.2,0.6c-0.1,0.1-0.1,0.3-0.2,0.4c-0.1,0.2-0.2,0.4-0.3,0.6c-0.1,0.2-0.2,0.4-0.3,0.6
						c-0.1,0.3-0.3,0.5-0.4,0.8c-0.1,0.2-0.1,0.3-0.2,0.5c0,0.1-0.1,0.2-0.2,0.4c-0.1,0.3-0.3,0.6-0.4,1c0,0.1-0.1,0.1-0.1,0.2
						c-0.1,0.2-0.1,0.3-0.2,0.5c0,0.1-0.1,0.2-0.2,0.3c-0.1,0.2-0.2,0.5-0.3,0.7c-0.2,0.4-0.4,0.8-0.6,1.2c-0.2,0.6-0.5,1.2-0.7,1.8
						c-0.1,0.3-0.2,0.6-0.3,0.9c-0.2,0.4-0.3,0.9-0.5,1.3c-0.1,0.2-0.2,0.4-0.2,0.7c-0.1,0.3-0.1,0.7-0.2,1
						c-0.1,0.4-0.2,0.9-0.3,1.3c-0.1,0.4-0.1,0.7-0.2,1.1c-0.1,0.3-0.1,0.7-0.2,1c-0.1,0.3-0.2,0.6-0.2,1c0,0.2,0,0.4,0,0.7
						c0,0.3,0,0.6,0,0.9c0,0.2,0,0.4-0.1,0.6c0,0.2,0,0.5,0,0.7c0,0,0,0.1,0,0.1c0,0.2,0,0.3,0,0.5c0,0.1,0,0.2,0,0.3
						c0,0.2,0,0.4,0,0.6c0,0.2,0,0.4,0,0.6c0,0.1,0,0.1,0.1,0.1c0.1,0,0.1,0.1,0.2,0.1c0.1,0.1,0.2,0.3,0.4,0.4
						c0.3,0.2,0.7,0.3,1,0.4c0.2,0.1,0.3,0.1,0.5,0.2c0.1,0,0.2,0.1,0.4,0.1c0.1,0,0.2,0,0.2,0.1c0,0,0.1,0.1,0.2,0.1
						c0,0,0.1,0,0.1,0c0.1,0,0.2,0.1,0.3,0.2C23.8,38.4,23.8,38.2,23.9,38z"/>
					<path class="st3" d="M16.8,36.9c0,0.1,0,0.2,0,0.2c-0.1,0.1,0,0.2,0,0.2c0,0.1,0.1,0.2,0.2,0.2c0.1,0.1,0.2,0,0.3,0
						c0.1-0.1,0.2-0.1,0.3-0.1c0.1,0,0.2,0,0.4,0c0.2,0,0.3-0.1,0.5-0.1c0.1,0,0.2,0,0.3,0c0.1,0,0.4,0,0.4-0.1c0,0,0-0.1,0-0.1
						c0-0.1,0-0.1,0.1-0.1c0,0,0.1-0.1,0.1-0.1c0,0,0.1-0.1,0.1-0.1c0-0.1,0-0.2,0.1-0.2c0-0.1,0.1-0.1,0.1-0.2c0,0,0.1-0.1,0.1-0.1
						c0,0,0,0,0-0.1c0.1-0.2,0.2-0.4,0.3-0.6c0.1-0.2,0.1-0.3,0-0.5c0-0.1,0-0.2,0-0.3c0.1-0.2,0-0.4,0-0.6c0-0.1,0-0.1,0-0.2
						c-0.1,0.1-0.2,0.3-0.3,0.4c0,0,0,0,0,0c0-0.1,0-0.2,0.1-0.3c0-0.1,0-0.2,0-0.3c0-0.1,0-0.2,0-0.3c0,0-0.1-0.1-0.1-0.1
						c0,0-0.1,0.1-0.1,0.1c-0.1,0.1-0.1,0.1-0.2,0.2c0.1-0.2,0-0.3,0-0.4c0-0.1,0.1-0.1,0.1-0.2c0,0,0-0.1,0-0.1c0,0,0-0.1,0-0.1
						c-0.1,0-0.2,0-0.3,0.1c0,0,0,0,0,0c0-0.1,0-0.1,0-0.1c0.1-0.1,0.1-0.2-0.1-0.2c-0.1-0.2-0.2-0.3-0.4-0.1c0,0,0,0,0,0
						c-0.2,0-0.3,0.2-0.4,0.3c-0.2,0.2-0.3,0.4-0.4,0.6c0,0-0.1,0.1-0.1,0.1c0,0,0,0,0,0c-0.1,0.1-0.1,0.3-0.2,0.4c0,0,0,0.1,0,0.1
						c0,0.2-0.1,0.3-0.2,0.5c0,0.1-0.1,0.2-0.1,0.3c0,0.1,0,0.3-0.1,0.4c0,0,0,0,0,0.1c-0.2,0.2-0.2,0.5-0.3,0.8c0,0.1,0,0.2,0,0.3
						c0,0.1,0,0.1,0,0.2C16.8,36.8,16.8,36.8,16.8,36.9z"/>
					<path class="st3" d="M15.8,28.1c0.1,0,0.3,0,0.3-0.1c0,0,0.1,0,0.1-0.1c0.1-0.1,0.1-0.1,0.2-0.2c0,0,0.1-0.1,0.1-0.1
						c0.1-0.1,0.1-0.1,0.1-0.2c0,0,0-0.1,0-0.1c-0.1,0-0.3,0.1-0.4,0.1c-0.1,0-0.2-0.1-0.3-0.1c0.1-0.1,0.3-0.2,0.4-0.3
						c0.1,0,0.1-0.1,0.2-0.1c0,0,0-0.1,0-0.1c0,0-0.1,0-0.1,0c-0.2,0-0.3,0-0.5,0.1c-0.1,0.1-0.2,0.2-0.3,0.2c0,0-0.1,0-0.2,0
						c-0.2-0.1-0.3-0.2-0.5-0.3c0-0.1,0.1-0.2,0.1-0.3c0-0.2,0-0.4,0.1-0.6c0-0.2-0.1-0.3-0.2-0.4c-0.1-0.1-0.2-0.2-0.3-0.2
						c0,0-0.1,0-0.2-0.1c-0.1-0.1-0.2-0.2-0.3-0.2c-0.1-0.1-0.2-0.1-0.3-0.1c-0.2,0-0.3-0.1-0.4-0.2c-0.1-0.1-0.2-0.1-0.4-0.2
						c0,0,0,0,0,0c0-0.1-0.1-0.2-0.1-0.3c0,0,0,0,0-0.1c0-0.1,0-0.1,0.1-0.2c0.1,0,0.1-0.1,0.1-0.1c0.1-0.1,0.2-0.1,0.2-0.2
						c0.1-0.1,0.2-0.1,0.2-0.2c0.1-0.2,0.2-0.4,0.3-0.6c0-0.1,0.1-0.1,0.1-0.2c0,0,0-0.1,0-0.1c0,0,0-0.1,0-0.1c0,0,0,0.1-0.1,0.1
						c0,0,0,0,0,0.1c-0.1,0.1-0.2,0.3-0.4,0.4c0,0-0.1,0.1-0.1,0.1c0,0-0.1,0-0.1,0c-0.1,0.1-0.2,0.1-0.3,0.2
						c-0.1,0.1-0.2,0.2-0.3,0.2c-0.1,0.1-0.2,0.2-0.2,0.4c0,0.2,0.1,0.4,0.3,0.6c0.1,0.1,0.2,0.2,0.3,0.2c0.2,0.1,0.3,0.2,0.5,0.3
						c0.1,0.1,0.2,0.1,0.3,0.1c0.3,0.1,0.5,0.2,0.7,0.5c0.1,0.2,0.1,0.3,0.1,0.5c0,0.1-0.1,0.1-0.1,0.2c0,0.1-0.1,0.2-0.1,0.2
						c0,0,0,0.1,0,0.1c-0.1,0.2,0,0.2,0.1,0.3c0.1,0,0.2,0.1,0.2,0.2c0.1,0.1,0.2,0.2,0.4,0.2c0,0.2,0,0.4,0,0.5c0,0,0,0,0,0.1
						c0,0,0.1,0.1,0.1,0.1c0,0,0,0.1,0.1,0.1c0.1,0,0.2,0,0.3,0.1c0.1,0,0.2,0.1,0.3,0.2c0.1,0,0.1,0,0.1,0.1c0,0.1,0,0.3,0.1,0.4
						c0,0.1,0.1,0.2,0.1,0.2c0,0,0,0.1,0.1,0.1c0,0.1,0,0.2,0.1,0.2c0.2,0.2,0.1,0.4,0.2,0.6c0.1,0.2,0.1,0.5,0.1,0.7
						c0,0.1,0,0.3,0.1,0.4c0,0,0,0.1,0.1,0.1c0.1,0.1,0.3,0.3,0.5,0.2c0.1,0,0.2,0,0.3,0c0.3,0.1,0.6,0.2,0.9,0.2c0.1,0,0.2,0,0.2,0
						c0.1,0,0.1,0,0.2,0c0.2,0.1,0.4,0.1,0.6,0c0.1-0.1,0.2-0.1,0.3-0.1c0.1,0,0.1,0,0.1-0.1c0-0.1-0.1-0.1-0.2-0.1
						c-0.2,0.1-0.3,0-0.5,0c-0.2,0-0.3-0.1-0.5,0c-0.2,0-0.3,0-0.5-0.1c-0.3-0.1-0.5-0.1-0.8-0.1c-0.2,0-0.4-0.1-0.5-0.3
						c-0.1-0.1-0.1-0.3-0.1-0.5c0-0.2-0.1-0.4-0.1-0.6c0-0.1,0-0.1,0-0.2c0-0.2,0-0.4-0.1-0.6C17,29.3,17,29.1,17,28.9
						c0,0,0-0.1,0-0.1c-0.1-0.1-0.2-0.3-0.4-0.3c-0.2-0.1-0.3-0.2-0.5-0.3C16.1,28.2,16,28.2,15.8,28.1
						C15.9,28.1,15.9,28.1,15.8,28.1z"/>
					<path class="st3" d="M30.7,17.1c-0.1,0.1-0.1,0.1-0.1,0.3c0.1,0.3,0.2,0.5,0.3,0.8c0,0.1,0,0.1,0,0.2c-0.1,0-0.1,0.1-0.2,0.2
						c-0.1,0.1-0.1,0.1-0.2,0.2c-0.1,0.1-0.2,0.2-0.3,0.3c0,0.1-0.1,0.1-0.1,0.2c0,0.1-0.1,0.1-0.1,0.2c0-0.2,0-0.3-0.1-0.5
						c0,0,0-0.1,0-0.2c0.1-0.2,0.1-0.4,0.2-0.6c0,0,0-0.1,0-0.1c0-0.1,0.1-0.2,0.1-0.2c0,0,0.1-0.1,0.1-0.1c0-0.2,0.1-0.4,0.3-0.5
						C30.6,17.1,30.6,17,30.7,17.1c0-0.3,0.1-0.4,0.3-0.5c0.2-0.2,0.5-0.2,0.7-0.4c0.1,0,0.1-0.1,0.2-0.1c0,0,0.1,0,0.2,0.1
						c0.1,0.1,0.2,0.1,0.3,0.3c0,0,0,0,0.1,0c0.1,0.1,0.3,0.1,0.4,0.2c0,0,0,0.1,0.1,0.1c0,0,0,0,0.1,0.1c0,0,0.1-0.1,0.1-0.1
						c0,0,0-0.1,0-0.1c-0.1-0.1-0.1-0.1-0.2-0.2c-0.1-0.1-0.2-0.2-0.2-0.3c0,0-0.1-0.1-0.1-0.1c0,0-0.1-0.1-0.1-0.1
						c-0.1-0.1-0.2-0.2-0.3-0.2c0,0-0.1,0-0.2,0c0,0-0.1,0-0.1,0c-0.1,0-0.1,0-0.2,0.1c-0.1,0.1-0.2,0.2-0.3,0.2
						c-0.1,0.1-0.1,0.2-0.2,0.3c0,0,0,0,0,0c-0.2,0.1-0.2,0.2-0.3,0.4c0,0-0.1,0.1-0.1,0.2c-0.1,0.1-0.1,0.2-0.2,0.3
						c-0.1,0.1-0.2,0.3-0.3,0.4c-0.1,0.1-0.1,0.2-0.1,0.3c0,0.2,0,0.4-0.1,0.5c0,0.1,0,0.2,0,0.3c0,0,0,0,0,0c0,0.1-0.1,0.2-0.1,0.3
						c0,0.3,0,0.6,0.1,0.9c0,0.1,0.1,0.2,0.2,0.3c0.1,0.1,0.1,0.2,0.1,0.3c0,0.1,0,0.2-0.2,0.2c-0.1,0-0.1,0.1-0.2,0.1
						c0,0,0,0.1,0,0.1c0,0,0.1,0.1,0.1,0.1c0.1,0,0.2,0,0.3-0.1c0.1,0,0.2-0.1,0.2-0.2c0.1-0.1,0.1-0.2,0.1-0.4c0-0.1,0-0.1-0.1-0.2
						c0-0.1-0.1-0.1-0.1-0.2c0-0.1-0.1-0.1-0.2-0.2c-0.1,0-0.1-0.2,0-0.3c0.1,0,0.1-0.2,0.2-0.1c0.1-0.2,0.2-0.3,0.3-0.5
						c0,0,0,0,0,0c0.3-0.1,0.4-0.4,0.6-0.6c0,0,0-0.1,0-0.1c0,0,0-0.1,0-0.1c0.1-0.1,0-0.2,0-0.3c0-0.1-0.1-0.2-0.1-0.3
						c0-0.1-0.1-0.2-0.2-0.3C30.8,17.2,30.7,17.1,30.7,17.1z"/>
					<path class="st3" d="M19.3,18.8c0.2,0.1,0.4,0.2,0.5,0.3c0,0,0.1,0,0.2,0c0,0,0,0,0,0c-0.1-0.2-0.3-0.3-0.4-0.5
						c0.1,0,0.1-0.1,0.2-0.1c0.1,0,0.2,0,0.3-0.1c0.2-0.1,0.4-0.1,0.6-0.3c0,0,0.1-0.1,0.1-0.1c-0.1,0-0.1-0.1-0.1-0.1
						c-0.1,0-0.1-0.1-0.2,0c-0.2,0-0.3,0.1-0.5,0.1c-0.2,0.1-0.4,0.1-0.6,0c-0.1,0-0.2,0.1-0.2,0.1c0,0,0,0.1,0,0.1c0,0,0,0.1,0,0.1
						c0,0.1,0,0.2-0.2,0.2c-0.1,0-0.1,0.1-0.2,0.2c0,0,0,0,0,0c-0.2,0.1-0.3,0.3-0.6,0.4c-0.1,0-0.1,0-0.2,0.1c0,0-0.1,0.1-0.1,0.1
						c0,0,0.1,0.1,0.1,0.1c0.1,0,0.2,0,0.3-0.1c0,0,0.1,0,0.1,0c0.2,0,0.3-0.1,0.5-0.2C18.9,19,19,19,19.1,19
						C19.2,18.9,19.3,18.9,19.3,18.8z"/>
					<path class="st3" d="M31.1,16.6c0.1,0.1,0.3,0.1,0.4,0.1c0.2,0,0.4,0.3,0.4,0.5c0,0.2,0,0.3,0,0.5c0,0,0,0,0,0.1
						c0,0.1,0,0.1,0,0.2c0,0.1,0,0.2,0,0.3c0,0.1,0,0.1,0,0.2c0,0,0.1,0.1,0.1,0.1c0,0,0.1,0,0.1-0.1c0-0.1,0.1-0.2,0-0.3
						c0-0.3-0.1-0.6-0.2-0.9c0-0.1-0.1-0.3-0.1-0.4c0-0.1-0.1-0.1-0.2-0.2c0,0-0.1,0-0.1-0.1c-0.1-0.1-0.2,0-0.3,0
						c-0.1,0-0.1,0-0.2,0C31.2,16.6,31.1,16.6,31.1,16.6z"/>
					<path class="st3" d="M17.3,26.5c0.2-0.1,0.4-0.2,0.6-0.3c0.1,0,0.2,0,0.3-0.1c0.1,0,0.2-0.1,0.3-0.1c0.1,0,0.2,0,0.2,0
						c0.2,0.1,0.3,0,0.5,0c0,0,0.1-0.1,0.1-0.1c0-0.2-0.1-0.2-0.3-0.2c-0.1,0-0.3,0.1-0.4,0.1c0,0,0,0-0.1,0c-0.1,0-0.2,0-0.3,0.1
						c0,0-0.1,0-0.1,0c-0.2,0.1-0.4,0.1-0.6,0.2c0,0-0.1,0.1-0.1,0.1C17.4,26.3,17.3,26.4,17.3,26.5C17.3,26.4,17.3,26.5,17.3,26.5
						C17.3,26.5,17.3,26.5,17.3,26.5z"/>
					<path class="st3" d="M22.1,18.8c-0.1,0-0.2,0-0.3,0.1c-0.2,0.1-0.3,0.2-0.5,0.3c-0.1,0.1-0.3,0.2-0.4,0.3
						c-0.1,0.1-0.3,0.1-0.3,0.3c0,0,0,0.1,0,0.1c0,0,0.1,0,0.1,0c0.1-0.1,0.2-0.1,0.3-0.2c0.2-0.2,0.4-0.4,0.6-0.5
						C21.9,19.1,22,19,22.1,18.8C22.1,18.8,22.1,18.8,22.1,18.8z"/>
					<path class="st3" d="M22.8,19c-0.2,0-0.3,0.1-0.5,0.2c-0.2,0.1-0.3,0.2-0.4,0.3c0,0-0.1,0.1,0,0.1c0,0,0.1,0.1,0.1,0.1
						c0,0,0.1,0,0.1,0c0.1-0.1,0.2-0.2,0.3-0.3C22.6,19.3,22.7,19.2,22.8,19z"/>
					<path class="st3" d="M15.1,24.5c-0.1,0-0.1,0-0.2,0c-0.1,0-0.3,0-0.4,0.1c0,0.1,0,0.1,0,0.1c0.1,0,0.2,0,0.2,0
						c0.2,0,0.4,0.1,0.5,0.1c0.1,0,0.2-0.1,0.1-0.1c0-0.1,0-0.1-0.1-0.1C15.2,24.5,15.2,24.5,15.1,24.5
						C15.1,24.5,15.1,24.5,15.1,24.5z"/>
					<path class="st3" d="M14.1,17.5c0.1,0.1,0.1,0.2,0.2,0.2c0,0,0.1,0,0.1,0c0,0,0-0.1,0-0.1c0-0.1-0.1-0.1-0.1-0.2
						c0,0,0-0.1,0-0.1c0.1,0,0.1-0.1,0.1-0.2c0,0-0.1-0.1-0.2,0c0,0-0.1,0.1-0.1,0.1C14.1,17.4,14.1,17.5,14.1,17.5
						C14.1,17.5,14.1,17.5,14.1,17.5z"/>
				</g>
			</g>
		</g>
	</g>
</g>
</svg>
